<svg xmlns="http://www.w3.org/2000/svg" width="644" height="527" fill="none"><ellipse cx="322" cy="450.216" fill="#E4EDFF" rx="322" ry="76.667"/><path fill="#36CA8E" d="M313.003 5.92a.61.61 0 0 1-.604-.544L311.854.68a.61.61 0 0 1 1.212-.144l.544 4.695a.6.6 0 0 1-.13.452.62.62 0 0 1-.414.224zM314.304 16.853a.613.613 0 0 1-.607-.544l-.544-4.695a.61.61 0 0 1 .975-.526c.125.093.211.23.239.382l.544 4.695a.6.6 0 0 1-.315.606.6.6 0 0 1-.229.07zM305.545 9.968a.61.61 0 0 1-.624-.573.605.605 0 0 1 .553-.642l4.704-.557a.615.615 0 0 1 .642.538.61.61 0 0 1-.498.674l-4.704.543zM316.501 8.672a.61.61 0 0 1-.071-1.215l4.704-.557a.61.61 0 0 1 .551.981.6.6 0 0 1-.407.228l-4.704.557zM282.042 21.621a5.66 5.66 0 0 1-4.899-2.842 5.777 5.777 0 0 1 1.979-7.844 5.53 5.53 0 0 1 4.251-.614 5.65 5.65 0 0 1 3.496 2.663 5.78 5.78 0 0 1-1.979 7.844 5.5 5.5 0 0 1-2.848.793m-2.289-9.643a4.559 4.559 0 0 0-1.551 6.19 4.42 4.42 0 0 0 2.743 2.092 4.32 4.32 0 0 0 3.319-.478 4.555 4.555 0 0 0 1.551-6.19 4.43 4.43 0 0 0-4.451-2.188 4.3 4.3 0 0 0-1.611.574"/><path fill="#3774EF" d="M328.132 479.625h-.032c-24.156-1.236-47.34-6.553-68.909-15.802a.61.61 0 0 1 .481-1.122c21.437 9.194 44.479 14.479 68.49 15.707a.61.61 0 0 1 .595.624.61.61 0 0 1-.625.593M339.075 479.905a.615.615 0 0 1-.572-.61.61.61 0 0 1 .572-.61c3.204 0 6.459-.073 9.674-.217a.61.61 0 1 1 .057 1.217c-3.236.155-6.508.218-9.731.22M335.912 467.151c-19.61.041-39.1-3.044-57.735-9.137a.608.608 0 1 1 .381-1.157c26.997 8.849 55.628 11.243 85.1 7.115a.62.62 0 0 1 .611.294.6.6 0 0 1-.038.676.6.6 0 0 1-.402.237 201 201 0 0 1-27.917 1.972"/><path fill="#000" d="m197.318 46.482 290.738-.828a9.93 9.93 0 0 1 7.33 3.19 9.89 9.89 0 0 1 2.586 7.553l-20.358 227.271a9.9 9.9 0 0 1-3.211 6.419 9.94 9.94 0 0 1-6.708 2.575l-358.103-.063c-5.847 0-10.494-5.486-9.977-11.259l20.356-225.864c.444-5.09 4.592-9.55 9.737-9.55z"/><path fill="#fff" d="M183.455 46.488h290.691a9.97 9.97 0 0 1 7.345 3.23 9.94 9.94 0 0 1 2.571 7.59l-20.257 227.246a9.93 9.93 0 0 1-3.196 6.452 9.97 9.97 0 0 1-6.721 2.607H95.753a9.964 9.964 0 0 1-7.345-3.23 9.94 9.94 0 0 1-2.572-7.59l20.258-227.246a9.93 9.93 0 0 1 3.196-6.452 9.97 9.97 0 0 1 6.72-2.607z"/><path fill="#000" d="M95.756 294.221a10.571 10.571 0 0 1-10.013-7.167 10.5 10.5 0 0 1-.516-4.315l20.257-227.247a10.5 10.5 0 0 1 3.38-6.862 10.52 10.52 0 0 1 7.146-2.75h67.445a.6.6 0 0 1 .459.163q.092.087.144.203a.62.62 0 0 1-.144.69.61.61 0 0 1-.459.163H116.01a9.3 9.3 0 0 0-6.32 2.434 9.28 9.28 0 0 0-2.989 6.068L86.454 282.853a9.3 9.3 0 0 0 2.415 7.123 9.34 9.34 0 0 0 6.895 3.031l11.509-.065a.609.609 0 1 1 0 1.217z"/><path fill="#000" d="M483.268 71.876h-.036a.605.605 0 0 1-.574-.644l.795-13.96a9.31 9.31 0 0 0-2.405-7.136 9.35 9.35 0 0 0-6.902-3.037H183.455a.614.614 0 0 1-.572-.61.61.61 0 0 1 .572-.61h290.691a10.59 10.59 0 0 1 7.795 3.428 10.54 10.54 0 0 1 2.729 8.054l-.795 13.942a.607.607 0 0 1-.607.573"/><path fill="#fff" d="M190.336 57.65h272.546c5.482 0 9.786 4.564 9.299 9.863l-18.992 207.189c-.43 4.673-4.464 8.257-9.299 8.257H108.108c-5.482 0-9.783-4.562-9.296-9.863l18.992-207.184c.428-4.673 4.464-8.257 9.299-8.257z"/><path fill="#000" d="M443.89 283.562H108.108a10.09 10.09 0 0 1-7.431-3.244 9.41 9.41 0 0 1-2.474-7.284l18.992-207.182c.462-5.024 4.72-8.811 9.908-8.811h335.779a10.1 10.1 0 0 1 7.434 3.244 9.42 9.42 0 0 1 2.472 7.284l-18.992 207.182c-.46 5.024-4.72 8.811-9.906 8.811M127.103 58.258c-4.551 0-8.289 3.312-8.692 7.706L99.419 273.145a8.2 8.2 0 0 0 2.159 6.35 8.85 8.85 0 0 0 6.533 2.85H443.89c4.552 0 8.289-3.312 8.689-7.706l18.995-207.181a8.21 8.21 0 0 0-2.159-6.35 8.86 8.86 0 0 0-6.533-2.85z"/><path fill="#fff" d="M375.281 135.86c-53.84-56.202-109.443-56.691-166.878.745 40.501 49.651 118.273 57.061 166.878-.745"/><path fill="#3774EF" d="M291.654 177.176h-.789c-32.069-.237-62.3-14.884-82.941-40.186a.604.604 0 0 1 .043-.815c28.944-28.942 57.955-43.451 86.199-43.158 27.431.294 54.872 14.569 81.559 42.427a.606.606 0 0 1 .024.815c-22.206 26.405-52.048 40.917-84.095 40.917m-82.435-40.531c20.416 24.755 50.13 39.077 81.662 39.311h.781c31.513 0 60.871-14.205 82.808-40.072-26.331-27.352-53.352-41.364-80.301-41.655-27.787-.299-56.368 13.974-84.95 42.416"/><path fill="#3774EF" d="M292.873 165.672c16.339 0 29.584-13.221 29.584-29.529 0-16.309-13.245-29.529-29.584-29.529s-29.583 13.22-29.583 29.529 13.245 29.529 29.583 29.529"/><path fill="#fff" d="m325.471 88.548-8.568-4.36-51.251 100.358 8.568 4.36z"/><path fill="#3774EF" d="M265.664 185.153a.613.613 0 0 1-.545-.883l51.248-100.357a.614.614 0 0 1 1.084.107c.055.14.057.295.005.436l-51.248 100.363a.62.62 0 0 1-.544.334M274.233 189.511a.624.624 0 0 1-.461-.21.6.6 0 0 1-.147-.441.6.6 0 0 1 .063-.229l51.249-100.36a.6.6 0 0 1 .35-.332.61.61 0 0 1 .738.875l-51.248 100.36a.6.6 0 0 1-.544.337"/><path fill="#fff" d="M399.085 416.136c-7.401-5.73-15.123-11.075-23.007-16.169-15.994-10.344-32.738-19.588-49.628-28.546-8.888-4.714-18.066-8.966-27.142-13.362a4862 4862 0 0 0-27.435-13.154q-12.544-5.99-25.079-12.001c-22.791-62.161-47.755-132.633-43.803-132.633l299.884-8.513c7.077 0 12.249 5.774 11.503 12.871l-21.455 208.32c-.73 7.097-7.078 12.87-14.155 12.87h-66.87c-4.181-3.333-8.596-6.412-12.813-9.683"/><path fill="#000" d="M478.768 426.428h-66.87a.6.6 0 0 1-.381-.133c-2.346-1.869-4.804-3.693-7.184-5.453a270 270 0 0 1-5.621-4.225c-6.805-5.274-14.323-10.553-22.966-16.14-16.86-10.9-34.526-20.532-49.582-28.529-6.87-3.643-14.035-7.064-20.96-10.393l-6.16-2.958a6351 6351 0 0 0-27.43-13.154 7878 7878 0 0 1-25.081-12.001.6.6 0 0 1-.31-.34c-47.13-128.552-44.756-131.94-43.975-133.054a.89.89 0 0 1 .746-.399l299.867-8.51c3.588 0 6.805 1.394 9.105 3.929s3.397 5.977 3.022 9.613L493.53 413c-.762 7.41-7.382 13.428-14.762 13.428m-66.658-1.22h66.658c6.77 0 12.848-5.526 13.548-12.322l21.455-208.317c.338-3.285-.626-6.366-2.722-8.675a10.85 10.85 0 0 0-8.166-3.533l-299.68 8.513c-.696 2.462 4.388 23.32 44.079 131.587a5710 5710 0 0 0 24.855 11.893c9.279 4.431 18.36 8.77 27.438 13.156q3.07 1.483 6.155 2.956c6.938 3.326 14.113 6.763 21.006 10.417 15.08 7.996 32.773 17.645 49.675 28.573 8.669 5.605 16.209 10.903 23.05 16.199 1.843 1.426 3.751 2.839 5.599 4.209 2.325 1.725 4.739 3.51 7.05 5.344"/><path fill="#fff" d="M193.856 192.486h302.842c6.686 0 11.544 5.434 10.853 12.143l-21.455 208.32c-.692 6.705-6.669 12.142-13.355 12.142H169.899c-6.683 0-11.542-5.434-10.853-12.142l21.455-208.32c.681-6.706 6.669-12.143 13.355-12.143"/><path fill="#000" d="m397.267 425.7-138.035-.128a.61.61 0 1 1 0-1.217l138.035.127a.61.61 0 0 1 0 1.218M177.082 238.456h-.062a.61.61 0 0 1-.545-.668l3.422-33.219c.721-6.996 6.985-12.689 13.962-12.689h302.839c4.685 0 9.604 4.348 11.471 8.385q.06.13.057.272l-.898 33.385a.611.611 0 0 1-1.222-.033l.895-33.238c-1.761-3.671-6.28-7.551-10.303-7.551H193.856c-6.37 0-12.086 5.201-12.745 11.594l-3.421 33.219a.61.61 0 0 1-.608.543"/><path fill="#fff" d="M201.897 200.526H488.11c6.315 0 10.888 5.062 10.243 11.306l-20.489 193.93c-.658 6.249-6.315 11.306-12.633 11.306h-286.21c-6.318 0-10.905-5.062-10.243-11.306l20.488-193.93c.659-6.252 6.316-11.306 12.631-11.306"/><path fill="#000" d="M465.231 417.668h-286.21c-3.24 0-6.155-1.252-8.21-3.532a10.76 10.76 0 0 1-2.643-8.447l20.489-193.933c.691-6.521 6.631-11.849 13.24-11.849H488.11c3.239 0 6.155 1.252 8.207 3.532a10.74 10.74 0 0 1 2.643 8.447l-20.489 193.933c-.688 6.535-6.628 11.849-13.24 11.849m-263.334-216.55c-6.002 0-11.397 4.826-12.026 10.757l-20.489 193.933a9.54 9.54 0 0 0 2.338 7.505c1.818 2.016 4.41 3.127 7.301 3.127h286.21c6.005 0 11.4-4.828 12.026-10.759l20.5-193.923a9.539 9.539 0 0 0-2.335-7.501c-1.819-2.019-4.413-3.128-7.301-3.128z"/><path fill="#36CA8E" d="m360.356 334.311-14.813-1.961.604-58.398 15.488 1.25-.147 58.145a.98.98 0 0 1-.344.741 1 1 0 0 1-.788.223"/><path fill="#36CA8E" d="m360.345 324.367-53.497-.1a2.64 2.64 0 0 0-2.526 1.736l-17.497 48.19 9.391 3.961 17.677-42.008a2.945 2.945 0 0 1 2.744-1.791h43.656a.72.72 0 0 0 .689-.484.7.7 0 0 0 .035-.296z"/><path fill="#36CA8E" d="M296.619 377.605c-.569 1.402-2.2 1.997-3.65 1.334l-16.061-7.355c-1.508-.687-2.262-2.445-1.679-3.896l.847-2.138c.642-1.631 2.515-2.318 4.186-1.555l18.57 7.82zM349.405 309.176h-37.973a1.36 1.36 0 0 1-1.325-1.244l-.36-5.008a1.15 1.15 0 0 1 .298-.876 1.15 1.15 0 0 1 .851-.366h37.965a1.36 1.36 0 0 1 1.328 1.242l.359 5.008a1.13 1.13 0 0 1-.295.875 1.13 1.13 0 0 1-.848.369M361.722 268.896c4.244-4.089 4.115-11.095-.288-15.648s-11.413-4.928-15.657-.839-4.115 11.096.288 15.649 11.413 4.928 15.657.838M379.454 320.411a46.5 46.5 0 0 0-8.599-9.988 39 39 0 0 0-4.505-3.532l.035 12.069c5.831 5.605 9.174 13.642 9.726 21.324 1.198 16.696-11.209 30.279-27.852 30.279-10.183 0-20.268-5.435-26.676-13.757a32.7 32.7 0 0 1-3.566-5.891 23.3 23.3 0 0 1-2.605-8.914l-5.273 11.632c1.231 2.635 2.494 4.969 3.847 6.559 7.834 11.743 20.891 18.807 34.513 18.807 8.841 0 17.606-2.75 24.084-8.322 6.389-5.502 11.204-13.727 12.506-22.28 1.51-9.882-.025-19.259-5.635-27.986"/><path fill="#000" d="M228.736 463.078h-98.565c-4.247 0-7.394-3.445-7.026-7.697l16.662-192.463c.367-4.249 4.11-7.695 8.356-7.695l93.574-1.087c10.746 0 12.382 4.543 12.015 8.793l-16.659 192.457c-.367 4.247-4.11 7.692-8.357 7.692"/><path fill="#fff" d="M222.805 463.078h-98.566c-4.246 0-7.393-3.456-7.025-7.722l16.645-193.074c.367-4.263 4.108-7.722 8.354-7.722h98.566c4.249 0 7.393 3.459 7.025 7.722l-16.642 193.074c-.368 4.266-4.111 7.722-8.357 7.722"/><path fill="#000" d="M222.805 463.687h-98.566a7.6 7.6 0 0 1-5.67-2.445 7.71 7.71 0 0 1-1.962-5.951l16.642-193.074c.395-4.565 4.415-8.279 8.967-8.279h98.563a7.596 7.596 0 0 1 5.67 2.445 7.7 7.7 0 0 1 1.965 5.948l-16.645 193.077c-.392 4.565-4.415 8.279-8.964 8.279m-80.589-208.515c-3.934 0-7.41 3.211-7.75 7.162l-16.643 193.077a6.48 6.48 0 0 0 1.647 5.018 6.383 6.383 0 0 0 4.769 2.038h98.566c3.931 0 7.407-3.211 7.747-7.162l16.645-193.074a6.5 6.5 0 0 0-1.633-5.022 6.39 6.39 0 0 0-4.772-2.037z"/><path fill="#000" d="M192.879 263.414c1.165-1.188 1.223-3.017.13-4.084-1.094-1.067-2.924-.968-4.088.22-1.165 1.189-1.223 3.018-.13 4.085s2.924.968 4.088-.221"/><path fill="#fff" d="m122.843 455.623 15.891-184.355a1.977 1.977 0 0 1 1.927-1.783h99.097a1.61 1.61 0 0 1 1.633 1.783L225.5 455.623a1.983 1.983 0 0 1-1.93 1.782h-99.083a1.61 1.61 0 0 1-1.575-1.104 1.6 1.6 0 0 1-.069-.678"/><path fill="#000" d="M223.559 458.014h-99.083a2.21 2.21 0 0 1-2.229-2.446l15.891-184.355a2.605 2.605 0 0 1 2.537-2.339h99.083a2.21 2.21 0 0 1 2.127 1.519c.099.298.134.614.102.926l-15.891 184.358a2.6 2.6 0 0 1-.825 1.649 2.6 2.6 0 0 1-1.712.688m-82.898-187.918a1.38 1.38 0 0 0-1.32 1.226L123.45 455.677q-.024.218.044.427c.044.138.118.264.214.372q.146.156.343.241c.13.055.27.082.411.08h99.083a1.38 1.38 0 0 0 1.32-1.226l15.892-184.355a1.02 1.02 0 0 0-.259-.815 1 1 0 0 0-.754-.318z"/><path fill="#3774EF" d="M146.067 376.48h13.965l26.09 12.7c1.255.592 2.635-.353 2.652-1.769l.4-42.498c.016-1.45-1.255-2.458-2.594-1.959l-25.996 10.64h-14.647c-1.239 0-2.251.327-2.265 1.593l-.201 18.943c-.017 1.489 1.148 2.35 2.596 2.35M195.794 382.569a3.13 3.13 0 0 1 .746-1.807c4.118-4.711 6.438-9.909 6.895-15.444.457-5.534-.983-11.014-4.277-16.286a3.16 3.16 0 0 1 .632-4.021 2.32 2.32 0 0 1 1.906-.526 2.32 2.32 0 0 1 1.619 1.135c3.942 6.303 5.716 13.248 5.172 20.079s-3.465 13.419-8.392 19.057c-.996 1.142-2.6 1.174-3.58.074a3.04 3.04 0 0 1-.721-2.261"/><path fill="#3774EF" d="M204.336 389.889a3.12 3.12 0 0 1 .765-1.823c5.917-6.66 9.255-14.02 9.897-21.883.643-7.864-1.434-15.634-6.19-23.095a3.166 3.166 0 0 1 .602-4.024 2.3 2.3 0 0 1 .89-.49 2.328 2.328 0 0 1 2.648 1.06 47 47 0 0 1 5.798 12.933 40.46 40.46 0 0 1-2.278 27.625 47.8 47.8 0 0 1-7.845 11.906c-1.007 1.133-2.61 1.149-3.582.035a3.04 3.04 0 0 1-.705-2.244"/><path fill="#fff" d="m179.102 332.086-5.626-2.035-23.056 64.805 5.626 2.032z"/><path fill="#3774EF" d="M150.423 395.464a.608.608 0 0 1-.577-.815l23.055-64.791a.612.612 0 0 1 1.152.408l-23.056 64.802a.6.6 0 0 1-.225.288.6.6 0 0 1-.349.108M156.046 397.497a.612.612 0 0 1-.574-.813l23.056-64.802a.62.62 0 0 1 .544-.405.613.613 0 0 1 .607.813l-23.055 64.802a.61.61 0 0 1-.578.405"/><path fill="#fff" d="M489.626 340.004h-45.303c-3.215 0-5.82 2.48-5.82 5.537v20.182l7.728.593.596-12.724c0-2.513-.364-6.065 2.276-6.065h40.523z"/><path fill="#000" d="M446.231 366.916h-.046l-7.728-.592a.61.61 0 0 1-.563-.609v-20.174c0-3.388 2.882-6.146 6.429-6.146h45.303a.61.61 0 0 1 .61.609v7.515a.605.605 0 0 1-.61.611h-40.523a1.292 1.292 0 0 0-.98.354c-.746.755-.718 2.7-.694 4.265v.835l-.596 12.751a.605.605 0 0 1-.61.581zm-7.115-1.763 6.533.5.563-12.099v-.788c-.027-1.883-.057-4.019 1.046-5.138a2.5 2.5 0 0 1 .851-.55c.318-.123.658-.18 1-.168h39.913v-6.298h-44.699c-2.872 0-5.207 2.212-5.207 4.929z"/><path fill="#fff" d="M423.039 419.475c0 35.295 17.354 63.905 38.763 63.905s38.762-28.61 38.762-63.905-17.356-63.905-38.762-63.905c-21.407 0-38.763 28.61-38.763 63.905m3.858 0c0-31.79 15.627-57.545 34.905-57.545s34.904 25.764 34.904 57.545-15.627 57.545-34.904 57.545-34.905-25.763-34.905-57.545"/><path fill="#000" d="M461.802 483.989c-21.712 0-39.375-28.94-39.375-64.514 0-35.575 17.663-64.514 39.375-64.514 21.711 0 39.371 28.939 39.371 64.514s-17.663 64.514-39.371 64.514m0-127.811c-21.039 0-38.153 28.396-38.153 63.308s17.114 63.307 38.153 63.307 38.152-28.396 38.152-63.307-17.116-63.308-38.152-63.308m0 121.453c-19.599 0-35.518-26.084-35.518-58.145s15.932-58.145 35.518-58.145 35.514 26.083 35.514 58.145c0 32.061-15.932 58.145-35.514 58.145m0-115.092c-18.911 0-34.298 25.54-34.298 56.936s15.385 56.936 34.298 56.936c18.912 0 34.297-25.54 34.297-56.936s-15.387-56.936-34.297-56.936"/><path fill="#fff" d="M488.834 402.947h63.805l-.795-103.876c-11.492-23.932-59.648-14.71-63.01.199z"/><path fill="#000" d="M552.639 403.548h-63.805a.61.61 0 0 1-.604-.601V299.259a.6.6 0 0 1 0-.136c1.595-7.064 13.088-13.36 27.327-14.971 13.662-1.543 30.514 1.492 36.832 14.645q.06.13.06.272l.792 103.878a.6.6 0 0 1-.178.433.6.6 0 0 1-.432.181zm-63.195-1.22h62.58l-.789-103.126c-6.084-12.472-22.321-15.33-35.534-13.838-13.695 1.548-24.716 7.415-26.257 13.963z"/><path fill="#fff" d="M552.903 403.499H474.19v-3.402c0-1.501.597-2.941 1.66-4.002a5.68 5.68 0 0 1 4.01-1.658h67.373a5.68 5.68 0 0 1 4.01 1.658 5.66 5.66 0 0 1 1.66 4.002z"/><path fill="#000" d="M552.906 404.11h-78.714a.616.616 0 0 1-.564-.377.6.6 0 0 1-.045-.234v-3.402a6.27 6.27 0 0 1 1.841-4.43 6.3 6.3 0 0 1 4.438-1.838h67.374a6.3 6.3 0 0 1 4.438 1.838 6.27 6.27 0 0 1 1.842 4.43v3.394a.62.62 0 0 1-.175.437.62.62 0 0 1-.435.182m-78.104-1.22h77.492v-2.793a5.05 5.05 0 0 0-1.483-3.568 5.07 5.07 0 0 0-3.575-1.48h-67.374a5.064 5.064 0 0 0-5.06 5.048z"/><path fill="#fff" d="M561.815 280.101c4.707-1.261 12.222-.253 18.41 1.19 1.362 0 2.668-.54 3.632-1.502a5.12 5.12 0 0 0 0-7.251 5.14 5.14 0 0 0-3.632-1.501h-18.959a2.116 2.116 0 0 0-2.118 2.114v4.912a2.109 2.109 0 0 0 1.706 2.071c.319.063.648.051.961-.033"/><path fill="#000" d="M580.236 281.899a.6.6 0 0 1-.139-.016c-7.671-1.788-14.275-2.223-18.113-1.193a2.72 2.72 0 0 1-2.37-.466 2.72 2.72 0 0 1-1.065-2.164v-4.91a2.72 2.72 0 0 1 2.722-2.717h18.965a5.77 5.77 0 0 1 4.063 1.68 5.734 5.734 0 0 1 0 8.112 5.76 5.76 0 0 1-4.063 1.68zm-13.164-2.988c4.72 0 9.949 1.005 13.232 1.766a4.53 4.53 0 0 0 3.189-1.347 4.51 4.51 0 0 0-.048-6.386 4.53 4.53 0 0 0-3.209-1.299h-18.96a1.507 1.507 0 0 0-1.505 1.503v4.909a1.5 1.5 0 0 0 .591 1.199 1.52 1.52 0 0 0 1.315.252 21.3 21.3 0 0 1 5.384-.595z"/><path fill="#000" d="M553.034 404.306h-77.475a.6.6 0 0 1-.431-.179.604.604 0 0 1 0-.86.6.6 0 0 1 .431-.179h76.857l-1.513-119.648c0-2.417.962-4.736 2.674-6.446a9.15 9.15 0 0 1 6.455-2.675.609.609 0 1 1 0 1.217 7.93 7.93 0 0 0-5.59 2.316 7.9 7.9 0 0 0-2.32 5.58l1.522 120.257a.6.6 0 0 1-.174.437.6.6 0 0 1-.436.18"/><path fill="#fff" d="M468.726 481.794h-78.711v-3.402c0-1.501.598-2.941 1.661-4.002a5.67 5.67 0 0 1 4.009-1.658h67.377c1.504 0 2.946.596 4.009 1.658a5.66 5.66 0 0 1 1.661 4.002v3.402z"/><path fill="#000" d="M468.726 482.402h-78.711a.61.61 0 0 1-.609-.611v-3.402a6.27 6.27 0 0 1 1.841-4.43 6.3 6.3 0 0 1 4.439-1.838h67.373a6.3 6.3 0 0 1 4.438 1.838 6.27 6.27 0 0 1 1.842 4.43v3.402a.614.614 0 0 1-.613.611m-78.101-1.22h77.492v-2.793a5.05 5.05 0 0 0-1.483-3.568 5.06 5.06 0 0 0-3.575-1.48H395.68a5.06 5.06 0 0 0-5.06 5.048zM418.273 448.415s-17.884-30.252-4.709-69.921 79.911-24.489 79.911-24.489z"/><path fill="#fff" d="M432.605 459.294s2.33 6.866 2.286 12.085a3.92 3.92 0 0 1-1.138 2.707 3.93 3.93 0 0 1-2.7 1.162c-7.349.204-25.691.631-34.878.106-1.32-.076-2.085-1.377-1.41-2.404 2.546-3.867 9.446-11.806 24.796-15.417z"/><path fill="#000" d="M408.422 476.216c-4.644 0-9.032-.068-12.279-.253a2.4 2.4 0 0 1-2.014-1.269 2.06 2.06 0 0 1 .125-2.079c2.836-4.312 9.878-12.08 25.168-15.674a.5.5 0 0 1 .22 0l13.044 1.76a.615.615 0 0 1 .496.411c.098.271 2.363 7.021 2.319 12.283a4.5 4.5 0 0 1-1.306 3.134 4.53 4.53 0 0 1-3.125 1.339c-4.81.122-14.158.348-22.648.348m11.16-18.063c-14.802 3.51-21.585 10.982-24.316 15.131a.83.83 0 0 0-.054.861 1.15 1.15 0 0 0 .991.601c9.14.521 27.4.097 34.826-.106a3.31 3.31 0 0 0 2.284-.975c.605-.608.95-1.428.96-2.286.036-4.385-1.674-10.053-2.139-11.526z"/><path fill="#000" d="M537.589 339.382s21.913 50.741-14.47 54.629-53.032.399-53.032.399l-30.729 67.209s-13.588 1.234-25.007-6.042c0 0 7.823-52.923 19.223-79.882s70.825-26.211 70.825-26.211z"/><path fill="#fff" d="M413.825 457.31a1 1 0 0 1-.1 0 .61.61 0 0 1-.504-.701c.381-2.301 9.445-56.678 19.792-81.156 3.874-9.17 13.531-16.158 28.704-20.772q.116-.035.237-.023a.61.61 0 0 1 .117 1.189c-14.808 4.502-24.207 11.259-27.934 20.079-10.292 24.348-19.326 78.586-19.71 80.881a.61.61 0 0 1-.602.503"/><path fill="#000" d="M415.355 467.179a.61.61 0 0 1-.504-.272l-4.309-6.296a.61.61 0 0 1 .183-.816.614.614 0 0 1 .827.129l4.309 6.295a.61.61 0 0 1-.16.848.62.62 0 0 1-.346.112M431.859 472.18h-31.366a.609.609 0 1 1 0-1.217h31.366a.61.61 0 1 1 0 1.217M409.903 468.398a.603.603 0 0 1-.517-.271l-3.362-5.35a.61.61 0 0 1 .213-.812.614.614 0 0 1 .824.165l3.348 5.334a.609.609 0 0 1-.517.934z"/><path fill="#fff" d="M515.889 419.475c0 35.295 17.356 63.905 38.762 63.905s38.762-28.61 38.762-63.905-17.353-63.905-38.762-63.905-38.762 28.61-38.762 63.905m3.857 0c0-31.79 15.627-57.545 34.905-57.545s34.905 25.764 34.905 57.545-15.628 57.545-34.905 57.545-34.905-25.763-34.905-57.545"/><path fill="#000" d="M554.648 483.989c-21.708 0-39.372-28.94-39.372-64.514 0-35.575 17.664-64.514 39.372-64.514 21.709 0 39.375 28.939 39.375 64.514s-17.661 64.514-39.375 64.514m0-127.811c-21.036 0-38.152 28.396-38.152 63.308s17.116 63.307 38.152 63.307 38.152-28.396 38.152-63.307-17.11-63.308-38.152-63.308m0 121.453c-19.582 0-35.515-26.084-35.515-58.145s15.933-58.145 35.515-58.145 35.518 26.083 35.518 58.145c0 32.061-15.919 58.145-35.518 58.145m0-115.092c-18.91 0-34.298 25.54-34.298 56.936s15.385 56.936 34.298 56.936 34.298-25.54 34.298-56.936-15.385-56.936-34.298-56.936"/><path fill="#fff" d="M554.651 428.634c3.068 0 5.556-4.1 5.556-9.159 0-5.058-2.488-9.159-5.556-9.159s-5.556 4.101-5.556 9.159 2.488 9.159 5.556 9.159"/><path fill="#000" d="M554.648 429.246c-3.457 0-6.165-4.293-6.165-9.782s2.722-9.781 6.165-9.781 6.168 4.293 6.168 9.781-2.705 9.782-6.168 9.782m0-18.322c-2.681 0-4.946 3.916-4.946 8.551s2.265 8.551 4.946 8.551 4.946-3.916 4.946-8.551-2.262-8.551-4.946-8.551"/><path fill="#fff" d="M465.909 321.052s24.85-43.236 28.271-45.312c3.422-2.076 0 19.807 0 19.807l-18.556 30.923z"/><path fill="#000" d="M475.624 327.079a.6.6 0 0 1-.297-.079l-9.715-5.415a.61.61 0 0 1-.231-.837c2.551-4.437 25.027-43.432 28.481-45.527a1.2 1.2 0 0 1 1.361-.035c2.308 1.54.239 16.047-.452 20.456a.6.6 0 0 1-.079.218l-18.556 30.923a.61.61 0 0 1-.512.296m-8.877-6.249 8.657 4.828 18.191-30.314c1.331-8.565 2.077-18.229.983-19.12l-.082.046c-2.384 1.44-17.78 27.233-27.749 44.551z"/><path fill="#fff" d="M530.866 274.865s-17.046-8.344-36.686.875c0 0-7.709 17.56-6.533 33.012 1.982 26.108-.914 39.398-1.584 42.721-1.187 5.893 41.612-1.185 51.123-2.769 8.787-1.462-2.267-19.544-3.147-26.538s-3.173-47.301-3.173-47.301"/><path fill="#000" d="M494.197 354.377c-4.543 0-7.309-.497-8.278-1.497a1.64 1.64 0 0 1-.457-1.527l.057-.272c2.284-11.232 2.793-25.456 1.516-42.272-1.17-15.425 6.508-33.124 6.585-33.303a.63.63 0 0 1 .299-.307c19.678-9.238 37.042-.954 37.216-.869a.61.61 0 0 1 .34.513c.022.402 2.3 40.362 3.166 47.258.272 2.062 1.475 5.228 2.763 8.578 2.365 6.157 5.044 13.134 3.065 16.574-.64 1.117-1.712 1.807-3.188 2.054-20.306 3.375-34.711 5.07-43.084 5.07m.454-78.183c-.854 2.024-7.477 18.291-6.397 32.512 1.285 16.927.765 31.262-1.54 42.609l-.055.272a.43.43 0 0 0 .136.437c1.114 1.149 8.246 3.065 50.288-3.929 1.11-.185 1.87-.66 2.327-1.456 1.691-2.948-.879-9.64-3.147-15.542-1.312-3.421-2.556-6.654-2.833-8.863-.817-6.581-2.921-42.899-3.152-46.975-2.409-1.043-18.037-7.217-35.627.935"/><path fill="#fff" d="m529.455 320.349-24.335-14.482-13.218 4.428a2.95 2.95 0 0 0 3.041.655c1.88-.617 4.529-.448 6.41 1.087s4.437 0 4.437 0 15.467 22.872 29.104 23.345c11.084.383 5.025-38.482 2.371-53.034a9.7 9.7 0 0 0-2.094-4.469 9.74 9.74 0 0 0-4.022-2.867l-4.083-1.554z"/><path fill="#000" d="M535.049 335.98h-.182c-12.892-.446-26.984-19.873-29.284-23.169-.936.413-2.961 1.041-4.627-.312-1.748-1.424-4.187-1.519-5.834-.978a3.55 3.55 0 0 1-3.68-.815.61.61 0 0 1-.142-.563.62.62 0 0 1 .398-.426l13.218-4.416a.61.61 0 0 1 .507.055l23.355 13.898-2.33-45.772a.6.6 0 0 1 .247-.518.61.61 0 0 1 .569-.083l4.083 1.552a10.399 10.399 0 0 1 6.501 7.803c2.401 13.159 7.287 44.56.835 52.024a4.66 4.66 0 0 1-1.622 1.27 4.7 4.7 0 0 1-2.012.45m-29.264-24.565a.61.61 0 0 1 .506.272c.152.225 15.45 22.619 28.617 23.076a3.448 3.448 0 0 0 2.863-1.307c6.28-7.252.735-40.879-1.113-51.011a9.157 9.157 0 0 0-5.733-6.879l-3.206-1.223 2.341 45.976a.6.6 0 0 1-.3.545.61.61 0 0 1-.623-.002l-24.093-14.335-11.664 3.896c.452.105.924.079 1.361-.073 1.963-.642 4.884-.522 6.988 1.195 1.529 1.247 3.713-.038 3.734-.051a.6.6 0 0 1 .327-.079z"/><path fill="#000" d="m466.726 325.671 39.453 1.59c.304 0 .602-.081.863-.235a1.7 1.7 0 0 0 .591-2.36l-19.901-32.333a2.7 2.7 0 0 0-.977-.939 2.7 2.7 0 0 0-1.312-.341l-39.881.91z"/><path fill="#fff" d="M463.881 327.261h42.584l-22.285-36.216h-42.584z"/><path fill="#000" d="M506.468 327.872h-42.587a.61.61 0 0 1-.52-.291l-22.285-36.215a.61.61 0 0 1-.014-.618.6.6 0 0 1 .534-.312h42.584a.6.6 0 0 1 .293.083q.137.08.218.214l22.283 36.215a.607.607 0 0 1-.52.929zm-42.244-1.22h41.155l-21.534-34.996h-41.158z"/><path fill="#fff" d="M460.778 325.829s.721-3.769 0-6.282-5.188-9.993-6.465-11.558c-1.276-1.566-2.357 15.144 6.465 17.84"/><path fill="#000" d="M460.778 326.437a.7.7 0 0 1-.18-.024c-5.444-1.666-7.567-8.423-7.738-14.183-.049-1.674.016-4.532 1.02-4.891a.79.79 0 0 1 .907.272c1.361 1.663 5.849 9.238 6.579 11.773.751 2.625.044 6.404 0 6.564a.6.6 0 0 1-.272.408.6.6 0 0 1-.316.081m-6.514-17.5c-.335 1.6-.386 5.885.953 9.808.765 2.245 2.256 5.068 5.074 6.25.16-1.18.392-3.579-.098-5.293-.621-2.147-4.301-8.448-5.929-10.765M502.178 255.229c2.844 4.458 9.162 6.868 14.285 6.417 7.238-.635 8.145-6.637 13.883-6.401 6.195.255 7.67 7.352 13.634 8.151 3.398.451 8.376-1.127 15.301-10.053.523.878 4.331 7.035 11.558 7.975 7.695 1.002 14.19-4.57 16.73-10.295 2.474-5.578 2.196-13.586-1.527-15.805-3.308-1.984-7.042 1.942-12.435.054-4.257-1.489-3.623-5.19-6.68-6.016-6.497-1.76-12.491 12.77-19.833 11.447-4.355-.788-3.704-6.159-9.078-8.107-7.022-2.552-11.563 5.377-19.615 3.317-5.83-1.492-5.466-6.165-11.623-7.673-5.782-1.418-12.453 1.144-16.479 5.581-5.828 6.423-6.155 16.813-3.207 18.427 2.902 1.59 8.283-5.689 11.977-3.676 1.974 1.054 1.075 3.472 3.109 6.657"/><path fill="#000" d="M502.178 231.142c-2.472-2.003-.909-7.901.672-11.086.594-1.193 3.245-6.521 6.735-6.325 3.582.215 7.012 6.217 5.732 10.971-1.598 5.945-10.246 8.785-13.139 6.44"/><path fill="#fff" d="M502.232 262.589a2.86 2.86 0 0 1-3.293-.502 17 17 0 0 1-2.513-3.19l-1.089-.408-1.162-5.225c-1.723-4.407-.621-7.292-.621-7.292.215-2.446 6.378-3.888 9.827.815 2.341 3.184 5.716 0 5.716 0s1.764-4.747 3.827-1.826c2.064 2.921-2.027 8.051-2.027 8.051l3.054 12.993a9.3 9.3 0 0 0 2.051 3.987 9.3 9.3 0 0 0 3.681 2.566l2.935 1.122s-4.584 14.99-17.568 14.711c-9.909-.212-5.638-13.586-5.638-13.586l1.301-.573a7.766 7.766 0 0 0 4.451-8.825l-.874-3.847z"/><path fill="#000" d="M505.401 288.996h-.368c-2.55-.057-4.456-.942-5.667-2.632-2.932-4.098-.637-11.431-.545-11.741a.62.62 0 0 1 .338-.375l1.301-.57a7.18 7.18 0 0 0 3.508-3.334 7.16 7.16 0 0 0 .592-4.799l-.7-3.089-1.361.679a3.46 3.46 0 0 1-4.001-.614 17.6 17.6 0 0 1-2.488-3.124l-.89-.334a.61.61 0 0 1-.382-.441l-1.154-5.162c-1.633-4.195-.816-7.083-.631-7.608.144-1.117 1.184-2.073 2.738-2.508 2.45-.679 5.918 0 8.166 3.09.526.717 1.122 1.086 1.821 1.157 1.274.112 2.529-.861 2.88-1.157.273-.639 1.242-2.815 2.722-3.011.763-.103 1.473.302 2.105 1.193 2.052 2.907-1.051 7.445-1.868 8.545l2.994 12.711a8.69 8.69 0 0 0 5.355 6.124l2.934 1.122a.607.607 0 0 1 .365.747c-.014.136-4.75 15.131-17.764 15.131m-5.485-13.748c-.368 1.302-1.851 7.2.443 10.404.978 1.358 2.556 2.076 4.701 2.122 10.992.271 15.821-11.118 16.785-13.743l-2.382-.913a9.9 9.9 0 0 1-3.925-2.733 9.9 9.9 0 0 1-2.183-4.25l-3.055-12.993a.62.62 0 0 1 .115-.519c1.059-1.329 3.479-5.236 2.006-7.32-.24-.339-.602-.739-.947-.687-.665.087-1.47 1.467-1.808 2.375a.6.6 0 0 1-.152.231c-.074.07-1.884 1.752-3.925 1.567-1.051-.095-1.96-.649-2.695-1.649-1.906-2.611-4.829-3.206-6.865-2.638-1.089.301-1.805.899-1.862 1.524a.5.5 0 0 1-.036.163c0 .025-.988 2.75.618 6.855 0 .03.019.06.028.09l1.088 4.891.776.29a.6.6 0 0 1 .308.253 16.4 16.4 0 0 0 2.42 3.076 2.235 2.235 0 0 0 2.588.388l2.058-1.029a.616.616 0 0 1 .749.164.6.6 0 0 1 .12.246l.873 3.85a8.38 8.38 0 0 1-.695 5.612 8.4 8.4 0 0 1-4.104 3.898z"/><path fill="#000" d="M504.29 262.168a.608.608 0 0 1-.272-1.157c3.201-1.552 2.621-4.546 2.616-4.576a.607.607 0 0 1 .473-.72.613.613 0 0 1 .722.473c0 .041.767 3.956-3.267 5.92a.6.6 0 0 1-.272.06"/><path fill="#fff" d="M486.738 401.149a.61.61 0 0 1-.609-.609v-45.429a9.83 9.83 0 0 1 2.887-6.948 9.87 9.87 0 0 1 6.961-2.883h56.929a.616.616 0 0 1 .572.61.61.61 0 0 1-.572.61h-56.929a8.64 8.64 0 0 0-6.097 2.525 8.6 8.6 0 0 0-2.529 6.086v45.429a.61.61 0 0 1-.613.609"/><path fill="#fff" d="M481.262 461.652h5.917l.082-104.509c0-4.543 2.896-8.222 6.449-8.216l58.796-.761-.272-6.989-59.189.18c-6.451 0-11.705 6.665-11.705 14.919z"/><path fill="#000" d="M487.179 462.271h-5.917a.609.609 0 0 1-.61-.608l.081-105.365c.017-8.57 5.534-15.531 12.304-15.531h.019l59.183-.176a.61.61 0 0 1 .61.587l.272 6.988a.62.62 0 0 1-.166.443.619.619 0 0 1-.435.19l-58.797.761c-3.217 0-5.831 3.41-5.839 7.607l-.079 104.509q0 .122-.046.234a.62.62 0 0 1-.332.33.6.6 0 0 1-.234.045zm-5.308-1.228h4.699l.081-103.897c0-4.869 3.169-8.825 7.048-8.825l58.162-.753-.207-5.755-58.598.177h-.016c-6.1 0-11.071 6.415-11.087 14.311z"/><path fill="#fff" d="M467.828 476.308c0-11.393 7.107-20.318 16.186-20.318 9.078 0 16.193 8.906 16.193 20.318 0 11.411-7.11 20.321-16.185 20.321-9.076 0-16.194-8.934-16.194-20.321m6.805 0c0 7.689 4.293 14.186 9.372 14.186 5.08 0 9.37-6.497 9.37-14.186s-4.29-14.183-9.37-14.183-9.364 6.485-9.364 14.183z"/><path fill="#000" d="M484.014 497.229c-9.419 0-16.798-9.192-16.798-20.921 0-11.73 7.379-20.922 16.798-20.922s16.795 9.192 16.795 20.922c0 11.729-7.377 20.921-16.795 20.921m0-40.639c-8.736 0-15.576 8.659-15.576 19.71s6.84 19.709 15.576 19.709c8.735 0 15.572-8.656 15.572-19.709s-6.84-19.71-15.572-19.71m0 34.507c-5.412 0-9.982-6.774-9.982-14.795 0-8.02 4.57-14.794 9.982-14.794s9.981 6.776 9.981 14.794-4.57 14.792-9.981 14.792zm0-28.369c-4.75 0-8.76 6.217-8.76 13.585s4.01 13.586 8.76 13.586 8.759-6.217 8.759-13.586c0-7.368-3.999-13.59-8.759-13.59z"/><path fill="#fff" d="M477.342 312.839h-4.756l6.868 18.592c0 1.12-.895.981-2.014.957l-17.438-.296c-2.278-.199-2.874 1.69-2.874 2.076l-.199 5.833h3.865l-.1-2.372c0-.815.98-1.502 1.785-1.483l18.627.456q.136.002.273-.016a3.776 3.776 0 0 0 3.281-3.422 3.76 3.76 0 0 0-.241-1.675z"/><path fill="#000" d="M460.797 340.612h-3.871a.61.61 0 0 1-.569-.391.6.6 0 0 1-.04-.239l.198-5.836a2.95 2.95 0 0 1 .969-1.878 3.3 3.3 0 0 1 1.198-.671c.443-.135.91-.174 1.369-.114l17.694.304c.37 0 .933.03 1.042-.076a.32.32 0 0 0 .046-.182l-6.826-18.476a.6.6 0 0 1 .073-.559.61.61 0 0 1 .501-.272h4.761a.61.61 0 0 1 .569.394l7.077 18.639a4.4 4.4 0 0 1-.357 3.885 4.274 4.274 0 0 1-3.187 2.043 2.5 2.5 0 0 1-.357.019l-18.627-.456a1.4 1.4 0 0 0-.903.394.73.73 0 0 0-.254.481l.098 2.347a.6.6 0 0 1-.37.587.6.6 0 0 1-.239.049zm-3.234-1.22h2.597l-.073-1.739a1.92 1.92 0 0 1 .62-1.377 2.495 2.495 0 0 1 1.789-.739l18.627.456q.095.006.19 0a3.05 3.05 0 0 0 2.279-1.464 3.19 3.19 0 0 0 .272-2.818l-6.931-18.247h-3.459l6.568 17.769q.036.103.035.212a1.54 1.54 0 0 1-.421 1.155c-.48.464-1.185.443-1.93.418h-.289l-17.421-.296a2.12 2.12 0 0 0-1.633.427c-.318.271-.537.64-.621 1.048z"/><path fill="#fff" d="M461.339 249.8h-59.616a3.14 3.14 0 0 0-3.144 3.138v21.585a3.14 3.14 0 0 0 3.144 3.138h59.616a3.14 3.14 0 0 0 3.144-3.138v-21.585a3.14 3.14 0 0 0-3.144-3.138"/><path fill="#3774EF" d="M461.339 278.269h-59.613a3.75 3.75 0 0 1-2.652-1.097 3.74 3.74 0 0 1-1.099-2.647v-21.587c0-.993.396-1.945 1.099-2.647a3.76 3.76 0 0 1 2.652-1.1h11.762a.61.61 0 0 1 .61.609.61.61 0 0 1-.61.609h-11.762a2.533 2.533 0 0 0-2.532 2.529v21.587a2.53 2.53 0 0 0 2.532 2.527h59.613a2.54 2.54 0 0 0 1.79-.741 2.53 2.53 0 0 0 .744-1.786v-21.587a2.54 2.54 0 0 0-2.534-2.529h-39.93a.6.6 0 0 1-.431-.179.605.605 0 0 1 0-.86.6.6 0 0 1 .431-.179h39.93a3.76 3.76 0 0 1 3.754 3.747v21.587a3.754 3.754 0 0 1-3.754 3.744"/><path fill="#3774EF" d="M455.78 260.685H408.4a.61.61 0 0 1-.609-.609.607.607 0 0 1 .609-.609h47.38a.61.61 0 1 1 0 1.218M455.78 267.004h-9.905a.61.61 0 1 1 0-1.217h9.905a.61.61 0 1 1 0 1.217M439.543 267.004H408.4a.61.61 0 0 1-.609-.608.61.61 0 0 1 .609-.609h31.143a.61.61 0 1 1 0 1.217"/><path fill="#fff" d="m489.877 148.57-.272-5.279-5.896-.975a21 21 0 0 0-1.16-3.508l4.192-4.124-2.967-4.437-5.616 1.999a23 23 0 0 0-2.825-2.461l1.5-5.597-4.873-2.402-3.838 4.434a23.5 23.5 0 0 0-3.732-.761l-1.6-5.559-5.474.272-1.032 5.689a23.5 23.5 0 0 0-3.637 1.131l-4.265-4.027-4.606 2.877 2.052 5.418a22.6 22.6 0 0 0-2.561 2.733l-5.798-1.429-2.507 4.709 4.584 3.687a21 21 0 0 0-.8 3.605l-5.774 1.566.272 5.279 5.896.975a21 21 0 0 0 1.16 3.505l-4.192 4.127 2.967 4.437 5.624-1.999a23 23 0 0 0 2.825 2.461l-1.5 5.597 4.873 2.402 3.838-4.434c1.221.354 2.469.608 3.732.761l1.601 5.559 5.471-.272 1.034-5.689a23.3 23.3 0 0 0 3.637-1.133l4.263 4.018 4.605-2.877-2.052-5.418a22.5 22.5 0 0 0 2.561-2.733l5.798 1.429 2.507-4.712-4.584-3.687c.37-1.175.638-2.381.801-3.602zm-27.765 12.371c-7.785.391-14.4-5.377-14.776-12.884s5.624-13.909 13.407-14.297c7.782-.389 14.399 5.377 14.775 12.884s-5.624 13.909-13.406 14.297"/><path fill="#36CA8E" d="M460.062 175.41a.6.6 0 0 1-.366-.123.6.6 0 0 1-.219-.318l-1.489-5.176a24 24 0 0 1-3.049-.619l-3.582 4.141a.613.613 0 0 1-.732.146l-4.875-2.401a.607.607 0 0 1-.319-.704l1.394-5.201a23 23 0 0 1-2.289-1.997l-5.257 1.87a.61.61 0 0 1-.713-.237l-2.967-4.434a.604.604 0 0 1 .079-.772l3.898-3.839a22 22 0 0 1-.934-2.826l-5.501-.91a.61.61 0 0 1-.509-.57l-.272-5.28a.6.6 0 0 1 .449-.619l5.381-1.456c.148-.982.363-1.953.643-2.905l-4.252-3.418a.61.61 0 0 1-.158-.761l2.507-4.708a.61.61 0 0 1 .686-.308l5.42 1.337a23 23 0 0 1 2.077-2.217l-1.906-5.035a.605.605 0 0 1 .248-.73l4.606-2.881a.61.61 0 0 1 .743.077l3.982 3.76q1.455-.557 2.97-.924l.963-5.295a.61.61 0 0 1 .569-.5l5.474-.272a.61.61 0 0 1 .618.44l1.489 5.176q1.544.21 3.046.62l3.585-4.141a.614.614 0 0 1 .732-.147l4.876 2.402a.61.61 0 0 1 .318.704l-1.394 5.2a23 23 0 0 1 2.29 1.997l5.256-1.869a.61.61 0 0 1 .713.236l2.967 4.434a.61.61 0 0 1-.079.772l-3.898 3.839q.563 1.381.934 2.826l5.501.91a.61.61 0 0 1 .509.571l.272 5.279a.61.61 0 0 1-.451.62l-5.382 1.456a21.5 21.5 0 0 1-.653 2.891l4.263 3.429a.614.614 0 0 1 .157.761l-2.507 4.708a.615.615 0 0 1-.686.307l-5.419-1.326a23 23 0 0 1-2.077 2.217l1.905 5.035a.6.6 0 0 1-.247.731l-4.606 2.88a.61.61 0 0 1-.746-.076l-3.98-3.76q-1.455.557-2.972.921l-.961 5.298a.606.606 0 0 1-.569.5l-5.474.272zm-5.33-7.538q.088 0 .172.022c1.188.348 2.404.596 3.634.742a.62.62 0 0 1 .514.437l1.465 5.095 4.507-.226.945-5.214a.61.61 0 0 1 .468-.486 23 23 0 0 0 3.539-1.087.61.61 0 0 1 .65.122l3.92 3.704 3.784-2.361-1.878-4.951a.6.6 0 0 1 .16-.668 22 22 0 0 0 2.494-2.66.61.61 0 0 1 .626-.212l5.335 1.312 2.047-3.845-4.192-3.371a.6.6 0 0 1-.199-.658c.361-1.143.622-2.314.779-3.502a.61.61 0 0 1 .443-.506l5.295-1.434-.215-4.299-5.412-.896a.61.61 0 0 1-.492-.459 21 21 0 0 0-1.127-3.408.602.602 0 0 1 .13-.673l3.833-3.774-2.423-3.622-5.171 1.842a.61.61 0 0 1-.643-.152 22.5 22.5 0 0 0-2.749-2.397.6.6 0 0 1-.226-.646l1.361-5.114-4.001-1.972-3.539 4.075a.62.62 0 0 1-.634.185 23 23 0 0 0-3.634-.739.61.61 0 0 1-.515-.438l-1.464-5.094-4.505.225-.948 5.214a.61.61 0 0 1-.468.487 23 23 0 0 0-3.538 1.1.6.6 0 0 1-.651-.122l-3.92-3.703-3.781 2.361 1.876 4.953a.6.6 0 0 1 .023.358.6.6 0 0 1-.184.308 22 22 0 0 0-2.496 2.66.6.6 0 0 1-.28.198.6.6 0 0 1-.343.014l-5.333-1.313-2.05 3.845 4.192 3.372a.61.61 0 0 1 .199.657 20.6 20.6 0 0 0-.778 3.503.605.605 0 0 1-.447.505l-5.291 1.435.215 4.298 5.411.897a.61.61 0 0 1 .493.459 21 21 0 0 0 1.127 3.407.61.61 0 0 1-.131.674l-3.833 3.774 2.423 3.622 5.172-1.843a.61.61 0 0 1 .642.153q1.277 1.31 2.75 2.396a.61.61 0 0 1 .226.647l-1.361 5.113 4.001 1.973 3.539-4.076a.62.62 0 0 1 .462-.223m6.637-6.3c-7.769 0-14.261-5.905-14.642-13.485a13.86 13.86 0 0 1 3.811-10.265 14.88 14.88 0 0 1 10.175-4.679c8.098-.413 15.023 5.632 15.415 13.463a13.88 13.88 0 0 1-3.811 10.265 14.9 14.9 0 0 1-10.178 4.671q-.385.03-.77.03m.114-27.223c-.234 0-.471 0-.708.017a13.67 13.67 0 0 0-9.35 4.29 12.68 12.68 0 0 0-3.481 9.368c.359 7.16 6.699 12.678 14.132 12.309a13.66 13.66 0 0 0 9.351-4.288 12.7 12.7 0 0 0 3.479-9.371c-.346-6.929-6.299-12.325-13.423-12.325"/><path fill="#fff" d="m587.313 115.039-.455-9.034-10.09-1.663a36.5 36.5 0 0 0-1.985-6l7.173-7.064-5.08-7.586-9.622 3.424a38.6 38.6 0 0 0-4.832-4.214l2.57-9.589-8.34-4.11-6.566 7.588a40 40 0 0 0-6.389-1.301l-2.722-9.51-9.366.47-1.767 9.738a40 40 0 0 0-6.225 1.935l-7.295-6.894-7.894 4.924 3.514 9.273a38.7 38.7 0 0 0-4.385 4.67l-9.917-2.445-4.293 8.062 7.845 6.309a36.5 36.5 0 0 0-1.361 6.165l-9.889 2.676.455 9.034 10.088 1.671a36.4 36.4 0 0 0 1.984 6l-7.173 7.064 5.077 7.589 9.633-3.427a39 39 0 0 0 4.832 4.215l-2.567 9.575 8.341 4.113 6.565-7.591a40 40 0 0 0 6.389 1.304l2.722 9.51 9.366-.468 1.767-9.74a40 40 0 0 0 6.225-1.935l7.296 6.896 7.894-4.926-3.517-9.268a39 39 0 0 0 4.385-4.676l9.916 2.445 4.29-8.058-7.842-6.31a36.4 36.4 0 0 0 1.361-6.167zm-47.514 21.169c-13.319.668-24.637-9.206-25.285-22.052s9.628-23.799 22.944-24.453c13.317-.655 24.638 9.205 25.286 22.049s-9.631 23.787-22.947 24.456z"/><path fill="#36CA8E" d="M536.293 160.534a.61.61 0 0 1-.588-.443l-2.624-9.127a41 41 0 0 1-5.716-1.163l-6.312 7.293a.615.615 0 0 1-.733.149l-8.337-4.111a.61.61 0 0 1-.322-.703l2.45-9.179a39.4 39.4 0 0 1-4.298-3.752l-9.255 3.293a.61.61 0 0 1-.713-.236l-5.055-7.592a.6.6 0 0 1 .079-.771l6.876-6.771a37 37 0 0 1-1.758-5.32l-9.691-1.606a.61.61 0 0 1-.509-.57l-.455-9.035a.611.611 0 0 1 .45-.619l9.48-2.565a37.4 37.4 0 0 1 1.217-5.47l-7.521-6.045a.61.61 0 0 1-.158-.76l4.293-8.06a.6.6 0 0 1 .683-.304l9.527 2.35a39 39 0 0 1 3.901-4.162l-3.356-8.899a.61.61 0 0 1 .248-.733l7.894-4.924a.61.61 0 0 1 .743.074l7.012 6.627a41 41 0 0 1 5.558-1.728l1.696-9.344a.61.61 0 0 1 .572-.5l9.366-.47a.61.61 0 0 1 .618.44l2.624 9.13c1.931.25 3.841.64 5.716 1.162l6.313-7.295a.615.615 0 0 1 .732-.147l8.324 4.12a.61.61 0 0 1 .321.703l-2.449 9.178a40 40 0 0 1 4.298 3.75l9.255-3.29a.606.606 0 0 1 .713.236l5.076 7.588a.604.604 0 0 1-.078.772l-6.876 6.771a38 38 0 0 1 1.758 5.32l9.691 1.606a.614.614 0 0 1 .509.57l.454 9.037a.603.603 0 0 1-.449.617l-9.497 2.573a37.4 37.4 0 0 1-1.217 5.47l7.521 6.048a.6.6 0 0 1 .155.761l-4.29 8.058a.61.61 0 0 1-.683.307l-9.541-2.35a39.5 39.5 0 0 1-3.9 4.163l3.369 8.884a.62.62 0 0 1-.247.734l-7.894 4.923a.61.61 0 0 1-.743-.076l-7.012-6.624a41 41 0 0 1-5.562 1.728l-1.693 9.344a.61.61 0 0 1-.571.5l-9.367.467zm-9.124-12.037q.088 0 .172.025a39.3 39.3 0 0 0 6.29 1.282.61.61 0 0 1 .512.437l2.602 9.048 8.4-.421 1.68-9.262a.62.62 0 0 1 .468-.487 39.3 39.3 0 0 0 6.13-1.902.62.62 0 0 1 .648.123l6.952 6.57 7.061-4.408-3.337-8.806a.6.6 0 0 1 .161-.665 38.4 38.4 0 0 0 4.317-4.603.6.6 0 0 1 .623-.215l9.457 2.329 3.829-7.195-7.45-5.991a.61.61 0 0 1-.198-.66 36 36 0 0 0 1.361-6.065.608.608 0 0 1 .443-.505l9.397-2.543-.417-8.067-9.603-1.59a.61.61 0 0 1-.493-.462 36 36 0 0 0-1.952-5.898.61.61 0 0 1 .131-.674l6.805-6.709-4.532-6.776-9.176 3.26a.61.61 0 0 1-.642-.149 38.4 38.4 0 0 0-4.756-4.149.61.61 0 0 1-.228-.647l2.449-9.093-7.466-3.682-6.261 7.233a.62.62 0 0 1-.634.184 40 40 0 0 0-6.291-1.282.61.61 0 0 1-.514-.435l-2.6-9.05-8.4.42-1.685 9.274a.62.62 0 0 1-.468.487 39.6 39.6 0 0 0-6.13 1.901.61.61 0 0 1-.648-.122l-6.952-6.57-7.061 4.41 3.337 8.804a.614.614 0 0 1-.161.668 38.4 38.4 0 0 0-4.312 4.616.61.61 0 0 1-.623.215l-9.456-2.331-3.833 7.194 7.453 5.983a.6.6 0 0 1 .199.658 36 36 0 0 0-1.361 6.064.61.61 0 0 1-.444.508l-9.397 2.544.403 8.053 9.607 1.592a.605.605 0 0 1 .492.459 36 36 0 0 0 1.952 5.899.6.6 0 0 1 .04.359.6.6 0 0 1-.171.318l-6.805 6.705 4.532 6.777 9.176-3.261a.616.616 0 0 1 .643.152 38.4 38.4 0 0 0 4.755 4.147.606.606 0 0 1 .229.649l-2.45 9.094 7.467 3.682 6.26-7.233a.618.618 0 0 1 .474-.215m11.359-11.648c-13.066 0-23.984-9.92-24.626-22.66-.662-13.162 9.892-24.424 23.524-25.106a25.03 25.03 0 0 1 17.826 6.108 23.36 23.36 0 0 1 8.099 16.52c.661 13.161-9.892 24.424-23.524 25.105q-.654.033-1.299.033m.21-46.581q-.624 0-1.25.032c-12.959.65-22.993 11.339-22.367 23.826.61 12.091 10.989 21.503 23.41 21.503.411 0 .816 0 1.236-.03 12.959-.649 22.993-11.338 22.367-23.828a22.14 22.14 0 0 0-7.685-15.664 23.78 23.78 0 0 0-15.711-5.84"/></svg>
