<svg width="351" height="53" viewBox="0 0 351 53" fill="none" xmlns="http://www.w3.org/2000/svg">
<path d="M311.736 28.4457C312.116 28.811 312.312 29.2886 312.312 29.8785C312.312 30.8338 312.031 31.6766 311.455 32.407C310.893 33.1375 309.994 33.5308 308.785 33.5589C305.89 33.6011 303.29 33.3763 300.986 32.8987C298.428 38.349 295.336 42.8862 291.725 46.4964C288.113 50.1065 284.558 51.9045 281.045 51.9045C277.826 51.9045 275.409 50.1908 273.793 46.7633C272.177 43.3357 271.264 38.7564 271.053 33.0111C268.861 39.3885 266.373 44.1224 263.605 47.2409C260.836 50.3593 257.899 51.9045 254.78 51.9045C251.266 51.9045 248.61 49.7132 246.812 45.3445C245.013 40.9758 244.113 35.0901 244.113 27.6872C244.113 22.3071 244.591 16.3933 245.547 9.9456C245.8 8.11947 246.264 6.84118 246.952 6.12477C247.627 5.40837 248.695 5.05719 250.17 5.05719C251.266 5.05719 252.124 5.29599 252.728 5.77359C253.332 6.2512 253.641 7.12212 253.641 8.41446C253.641 8.66731 253.599 9.15896 253.529 9.88942C252.433 17.3906 251.885 23.7821 251.885 29.0638C251.885 33.9663 252.306 37.759 253.149 40.428C253.993 43.0969 255.131 44.4314 256.55 44.4314C257.829 44.4314 259.375 43.0829 261.188 40.3999C263.001 37.7028 264.799 33.7134 266.598 28.4317C268.397 23.15 269.915 16.8287 271.165 9.51014C271.46 7.82448 271.994 6.65856 272.781 6.02644C273.568 5.38027 274.636 5.07123 276 5.07123C277.138 5.07123 277.967 5.32408 278.501 5.81573C279.035 6.30738 279.302 7.05189 279.302 8.03519C279.302 8.62517 279.26 9.07468 279.19 9.41181C278.164 15.3819 277.658 21.3519 277.658 27.322C277.658 31.3816 277.798 34.6265 278.065 37.0426C278.346 39.4587 278.866 41.2989 279.653 42.5632C280.44 43.8274 281.579 44.4595 283.082 44.4595C284.839 44.4595 286.792 43.1391 288.956 40.4842C291.12 37.8293 293.088 34.5282 294.887 30.5669C292.652 29.1762 290.966 27.3782 289.828 25.1587C288.689 22.9392 288.127 20.3967 288.127 17.503C288.127 14.6093 288.577 12.1651 289.476 10.1704C290.376 8.17566 291.598 6.68666 293.158 5.68931C294.718 4.70601 296.447 4.21436 298.344 4.21436C300.691 4.21436 302.546 5.05719 303.923 6.74285C305.3 8.42851 305.988 10.7322 305.988 13.6681C305.988 17.812 305.089 22.4055 303.29 27.4484C305.159 27.7715 307.352 27.94 309.881 27.94C310.724 27.94 311.343 28.1227 311.722 28.4879L311.736 28.4457ZM297.149 25.0463C298.583 20.9445 299.285 17.5592 299.285 14.8902C299.285 13.3591 299.088 12.2212 298.681 11.5048C298.273 10.7884 297.725 10.4373 297.037 10.4373C296.053 10.4373 295.238 11.0132 294.62 12.1651C294.001 13.3169 293.692 14.9604 293.692 17.0816C293.692 20.6636 294.844 23.3185 297.149 25.0463Z" fill="#3774EF"/>
<path d="M332.619 40.0343C332.9 40.4698 333.026 41.0738 333.026 41.8464C333.026 43.3073 332.675 44.4451 331.986 45.2458C330.637 46.8894 328.712 48.4065 326.239 49.7971C323.765 51.1878 321.123 51.8901 318.299 51.8901C314.448 51.8901 311.469 50.8507 309.347 48.7576C307.225 46.6646 306.157 43.813 306.157 40.1889C306.157 37.6604 306.691 35.3145 307.745 33.1372C308.799 30.9599 310.289 29.2321 312.172 27.9538C314.055 26.6755 316.191 26.0293 318.566 26.0293C320.688 26.0293 322.388 26.6614 323.681 27.9257C324.96 29.1899 325.606 30.9037 325.606 33.0669C325.606 35.5954 324.707 37.7587 322.88 39.5708C321.053 41.3829 318.004 42.8157 313.675 43.8833C314.589 45.5689 316.331 46.4118 318.889 46.4118C320.533 46.4118 322.416 45.8358 324.524 44.6839C326.632 43.5321 328.459 42.015 329.991 40.1467C330.427 39.641 330.918 39.3741 331.48 39.3741C331.958 39.3741 332.338 39.5989 332.605 40.0343H332.619ZM314.209 33.7833C313.282 35.3566 312.804 37.267 312.804 39.5005V39.6129C314.968 39.1072 316.669 38.3346 317.919 37.3092C319.17 36.2837 319.788 35.0897 319.788 33.7412C319.788 33.0529 319.592 32.491 319.212 32.0696C318.833 31.6482 318.313 31.4375 317.652 31.4375C316.303 31.4375 315.151 32.2241 314.223 33.7974L314.209 33.7833Z" fill="#3774EF"/>
<path d="M331.466 47.6761C329.794 44.8526 328.965 40.779 328.965 35.427C328.965 30.7071 329.555 25.5659 330.722 20.0172C331.888 14.4686 333.602 9.74874 335.865 5.84363C338.113 1.93851 340.798 0 343.917 0C345.604 0 346.953 0.716406 347.979 2.16327C349.004 3.61012 349.51 5.49245 349.51 7.79618C349.51 10.8023 348.948 13.7803 347.81 16.7442C346.672 19.7082 344.789 22.8267 342.147 26.0856C343.945 26.2261 345.505 26.8301 346.84 27.8977C348.175 28.9653 349.201 30.3279 349.918 32.0135C350.635 33.6992 350.986 35.5253 350.986 37.506C350.986 40.2452 350.438 42.7175 349.37 44.9229C348.288 47.1142 346.868 48.828 345.112 50.0641C343.355 51.2862 341.472 51.9043 339.448 51.9043C335.781 51.9043 333.125 50.4996 331.452 47.6761H331.466ZM342.835 43.9396C343.692 42.591 344.128 40.6104 344.128 38.0117C344.128 36.0029 343.763 34.4718 343.032 33.4463C342.301 32.4209 341.416 31.9152 340.39 31.9152C339.111 31.9152 338.029 32.5754 337.144 33.8958C336.258 35.2163 335.823 37.1407 335.823 39.6692C335.823 41.8606 336.188 43.462 336.919 44.4734C337.65 45.4848 338.563 45.9905 339.659 45.9905C340.91 45.9905 341.964 45.3162 342.821 43.9536L342.835 43.9396ZM342.02 18.0928C343.468 14.7074 344.184 11.7013 344.184 9.06043C344.184 7.89451 344.044 6.99549 343.777 6.36337C343.496 5.7453 343.13 5.43626 342.653 5.43626C341.922 5.43626 341.121 6.53194 340.264 8.70925C339.406 10.8866 338.605 13.8505 337.875 17.573C337.144 21.3096 336.596 25.3973 336.23 29.8222C338.647 25.3973 340.573 21.4781 342.02 18.0928Z" fill="#3774EF"/>
<path d="M30.4949 40.4557H13.4627L9.3733 52.0024H0L17.4256 5.61865H28.0496L43.8873 52.0165H34.1767L30.4808 40.4697L30.4949 40.4557ZM16.3014 32.533H27.9794L22.4987 15.3814L16.2873 32.533H16.3014Z" fill="white"/>
<path d="M53.7103 50.7243C51.2651 49.2915 49.382 47.2687 48.0329 44.6559C46.6838 42.0432 46.0233 38.9668 46.0233 35.455C46.0233 31.9433 46.7119 28.9231 48.075 26.2822C49.4382 23.6414 51.3494 21.6045 53.8227 20.1436C56.282 18.6968 59.1066 17.9663 62.2685 17.9663C66.4984 17.9663 70.0117 19.2025 72.8363 21.6607C75.6469 24.119 77.277 27.5184 77.7267 31.8168H68.7469C68.5221 29.9626 67.8335 28.5157 66.6671 27.4622C65.5007 26.4087 64.0111 25.8749 62.2123 25.8749C60.006 25.8749 58.2775 26.7317 56.9987 28.4455C55.7198 30.1593 55.0875 32.477 55.0875 35.3708C55.0875 38.2645 55.7198 40.6525 56.9987 42.3663C58.2775 44.08 59.9919 44.9369 62.142 44.9369C63.8565 44.9369 65.3039 44.4171 66.4984 43.3917C67.6929 42.3522 68.4377 40.8913 68.7469 39.009H77.6565C77.4316 41.8746 76.6306 44.3469 75.2534 46.4399C73.8622 48.533 72.0493 50.1203 69.8009 51.23C67.5524 52.3257 65.0229 52.8735 62.2123 52.8735C58.9942 52.8735 56.1695 52.1571 53.7243 50.7243H53.7103Z" fill="white"/>
<path d="M89.8123 50.7243C87.367 49.2915 85.484 47.2687 84.1349 44.6559C82.7858 42.0432 82.1253 38.9668 82.1253 35.455C82.1253 31.9433 82.8139 28.9231 84.177 26.2822C85.5402 23.6414 87.4514 21.6045 89.9247 20.1436C92.3839 18.6968 95.2086 17.9663 98.3705 17.9663C102.6 17.9663 106.114 19.2025 108.938 21.6607C111.749 24.119 113.379 27.5184 113.829 31.8168H104.849C104.624 29.9626 103.935 28.5157 102.769 27.4622C101.603 26.4087 100.113 25.8749 98.3143 25.8749C96.108 25.8749 94.3795 26.7317 93.1006 28.4455C91.8218 30.1593 91.1894 32.477 91.1894 35.3708C91.1894 38.2645 91.8218 40.6525 93.1006 42.3663C94.3795 44.08 96.0939 44.9369 98.244 44.9369C99.9585 44.9369 101.406 44.4171 102.6 43.3917C103.795 42.3522 104.54 40.8913 104.849 39.009H113.758C113.534 41.8746 112.733 44.3469 111.355 46.4399C109.964 48.533 108.151 50.1203 105.903 51.23C103.654 52.3257 101.125 52.8735 98.3143 52.8735C95.0962 52.8735 92.2715 52.1571 89.8263 50.7243H89.8123Z" fill="white"/>
<path d="M150.844 38.2784H127.277C127.671 40.4838 128.514 42.2116 129.821 43.4899C131.114 44.7682 132.885 45.4003 135.133 45.4003C136.847 45.4003 138.295 44.993 139.461 44.1782C140.628 43.3635 141.358 42.338 141.668 41.1159H150.184C150.099 43.4056 149.34 45.4425 147.935 47.2124C146.53 48.9964 144.661 50.373 142.356 51.3704C140.052 52.3537 137.508 52.8594 134.725 52.8594C131.339 52.8594 128.388 52.1289 125.886 50.654C123.385 49.179 121.459 47.1422 120.139 44.5435C118.818 41.9447 118.157 38.9808 118.157 35.6375C118.157 32.2943 118.846 29.0916 120.237 26.4366C121.628 23.7817 123.567 21.7027 126.083 20.1997C128.598 18.7107 131.493 17.9521 134.796 17.9521C138.098 17.9521 140.895 18.6405 143.312 20.003C145.729 21.3656 147.598 23.2901 148.891 25.7764C150.184 28.2628 150.844 31.1284 150.844 34.3873V38.2784ZM130.158 27.0547C128.865 28.1504 127.966 29.6956 127.488 31.6762H141.808C141.541 29.6956 140.853 28.1504 139.728 27.0547C138.604 25.959 137.03 25.4112 135.007 25.4112C132.983 25.4112 131.451 25.959 130.158 27.0547Z" fill="white"/>
<path d="M160.063 49.8532C157.182 47.7602 155.692 44.74 155.608 40.7787H163.998C164.166 42.633 164.883 44.0517 166.148 45.035C167.399 46.0183 169.043 46.524 171.066 46.524C172.865 46.524 174.341 46.1448 175.493 45.3722C176.631 44.5996 177.207 43.532 177.207 42.1694C177.207 40.273 175.844 39.1352 173.118 38.7419L165.726 37.6181C162.859 37.2248 160.611 36.2415 158.953 34.6823C157.308 33.123 156.479 31.0159 156.479 28.3751C156.479 25.1583 157.716 22.6157 160.203 20.7194C162.691 18.823 166.176 17.8818 170.673 17.8818C175.17 17.8818 178.627 18.837 181.198 20.7475C183.77 22.6579 185.077 25.4673 185.133 29.1617H176.687C176.73 27.6727 176.252 26.4928 175.24 25.6359C174.228 24.779 172.823 24.3435 171.01 24.3435C169.338 24.3435 168.003 24.7088 167.019 25.4392C166.035 26.1697 165.529 27.0968 165.529 28.2487C165.529 29.7517 166.612 30.6648 168.762 31.0159L174.833 31.9431C182.266 33.1371 185.991 36.4522 185.991 41.9025C185.991 45.2879 184.655 47.9849 181.999 49.9796C179.329 51.9743 175.732 52.9857 171.207 52.9857C166.682 52.9857 162.958 51.9462 160.077 49.8532H160.063Z" fill="white"/>
<path d="M194.717 49.8532C191.836 47.7602 190.347 44.74 190.263 40.7787H198.652C198.821 42.633 199.538 44.0517 200.802 45.035C202.053 46.0183 203.697 46.524 205.721 46.524C207.52 46.524 208.995 46.1448 210.147 45.3722C211.286 44.5996 211.862 43.532 211.862 42.1694C211.862 40.273 210.499 39.1352 207.773 38.7419L200.381 37.6181C197.514 37.2248 195.265 36.2415 193.607 34.6823C191.963 33.123 191.134 31.0159 191.134 28.3751C191.134 25.1583 192.371 22.6157 194.858 20.7194C197.345 18.823 200.83 17.8818 205.327 17.8818C209.824 17.8818 213.281 18.837 215.853 20.7475C218.425 22.6579 219.732 25.4673 219.788 29.1617H211.342C211.384 27.6727 210.906 26.4928 209.895 25.6359C208.883 24.779 207.477 24.3435 205.665 24.3435C203.992 24.3435 202.657 24.7088 201.674 25.4392C200.69 26.1697 200.184 27.0968 200.184 28.2487C200.184 29.7517 201.266 30.6648 203.416 31.0159L209.487 31.9431C216.921 33.1371 220.645 36.4522 220.645 41.9025C220.645 45.2879 219.31 47.9849 216.654 49.9796C213.984 51.9743 210.386 52.9857 205.861 52.9857C201.336 52.9857 197.612 51.9462 194.731 49.8532H194.717Z" fill="white"/>
<path d="M235.808 13.9908H227.025V5.61865H235.808V14.0048V13.9908ZM235.808 52.0024H227.025V18.809H235.808V52.0024Z" fill="white"/>
</svg>
