<svg width="644" height="527" viewBox="0 0 644 527" fill="none" xmlns="http://www.w3.org/2000/svg">
<ellipse cx="322" cy="450.216" rx="322" ry="76.6667" fill="#E4EDFF"/>
<path d="M313.003 5.91932C312.853 5.91945 312.708 5.86395 312.596 5.76358C312.485 5.6632 312.414 5.52508 312.399 5.37591L311.854 0.680828C311.835 0.520493 311.881 0.359135 311.981 0.232258C312.081 0.105381 312.227 0.0233707 312.388 0.00427455C312.548 -0.0148216 312.71 0.0305631 312.837 0.130434C312.964 0.230306 313.046 0.376489 313.066 0.536825L313.61 5.23191C313.619 5.31212 313.613 5.39341 313.59 5.47103C313.568 5.54866 313.53 5.62106 313.48 5.68403C313.429 5.747 313.366 5.79928 313.295 5.83781C313.224 5.87634 313.146 5.90035 313.066 5.90845L313.003 5.91932Z" fill="#36CA8E"/>
<path d="M314.304 16.8528C314.154 16.8524 314.009 16.7968 313.897 16.6966C313.785 16.5963 313.714 16.4585 313.697 16.3094L313.153 11.6143C313.144 11.4589 313.195 11.3061 313.295 11.1869C313.395 11.0677 313.537 10.9911 313.692 10.9728C313.847 10.9544 314.003 10.9957 314.128 11.0881C314.253 11.1805 314.339 11.3172 314.367 11.4703L314.911 16.1654C314.921 16.2456 314.914 16.3269 314.892 16.4045C314.869 16.4821 314.832 16.5545 314.781 16.6175C314.73 16.6805 314.668 16.7327 314.596 16.7713C314.525 16.8098 314.447 16.8338 314.367 16.8419L314.304 16.8528Z" fill="#36CA8E"/>
<path d="M305.545 9.96774C305.386 9.9717 305.233 9.91413 305.116 9.80719C305 9.70025 304.93 9.55232 304.921 9.39466C304.911 9.23699 304.964 9.08192 305.067 8.96223C305.17 8.84254 305.316 8.76759 305.474 8.75322L310.178 8.19622C310.333 8.18746 310.486 8.23825 310.606 8.33825C310.725 8.43826 310.802 8.57994 310.82 8.73445C310.839 8.88895 310.797 9.04464 310.705 9.16979C310.612 9.29494 310.475 9.38015 310.322 9.40803L305.618 9.95144L305.545 9.96774Z" fill="#36CA8E"/>
<path d="M316.501 8.67168C316.343 8.67564 316.189 8.61806 316.073 8.51112C315.956 8.40419 315.886 8.25625 315.877 8.09858C315.868 7.94091 315.92 7.78586 316.023 7.66616C316.127 7.54647 316.273 7.47153 316.43 7.45715L321.134 6.90015C321.294 6.88105 321.456 6.92643 321.583 7.0263C321.71 7.12617 321.792 7.27236 321.812 7.43269C321.831 7.59303 321.785 7.75438 321.685 7.88126C321.585 8.00814 321.439 8.09015 321.278 8.10924L316.574 8.66624L316.501 8.67168Z" fill="#36CA8E"/>
<path d="M282.042 21.6212C281.047 21.6195 280.07 21.3558 279.21 20.8568C278.35 20.3578 277.637 19.6412 277.143 18.7792C276.381 17.4727 276.161 15.9206 276.531 14.4547C276.901 12.9888 277.831 11.7255 279.122 10.935C279.753 10.5548 280.455 10.3046 281.185 10.1991C281.916 10.0937 282.66 10.1351 283.373 10.321C284.105 10.509 284.791 10.8416 285.391 11.2989C285.992 11.7563 286.494 12.3292 286.869 12.9837C287.63 14.2901 287.85 15.8423 287.48 17.3082C287.11 18.774 286.18 20.0373 284.89 20.8278C284.031 21.3464 283.046 21.6207 282.042 21.6212ZM279.753 11.9784C278.736 12.6039 278.005 13.6014 277.715 14.7578C277.425 15.9143 277.6 17.1381 278.202 18.1678C278.495 18.6821 278.89 19.1322 279.361 19.4916C279.832 19.851 280.371 20.1123 280.945 20.26C281.502 20.4056 282.083 20.4383 282.653 20.3562C283.223 20.2741 283.771 20.0787 284.264 19.7818C285.281 19.1567 286.013 18.1592 286.303 17.0026C286.593 15.8459 286.418 14.6219 285.815 13.5923C285.521 13.0781 285.127 12.6281 284.656 12.2687C284.184 11.9093 283.646 11.648 283.071 11.5002C282.514 11.3545 281.934 11.3218 281.364 11.4039C280.794 11.4861 280.246 11.6814 279.753 11.9784Z" fill="#36CA8E"/>
<path d="M328.132 479.625H328.1C303.944 478.389 280.76 473.072 259.191 463.823C259.05 463.754 258.942 463.633 258.888 463.486C258.833 463.34 258.838 463.178 258.899 463.034C258.961 462.89 259.076 462.776 259.219 462.714C259.363 462.652 259.525 462.647 259.672 462.701C281.109 471.895 304.151 477.18 328.162 478.408C328.324 478.412 328.477 478.48 328.589 478.597C328.7 478.714 328.761 478.87 328.757 479.032C328.753 479.193 328.685 479.346 328.568 479.458C328.451 479.569 328.294 479.629 328.132 479.625Z" fill="#3774EF"/>
<path d="M339.075 479.905C338.92 479.895 338.775 479.826 338.668 479.713C338.562 479.6 338.503 479.45 338.503 479.295C338.503 479.14 338.562 478.991 338.668 478.878C338.775 478.764 338.92 478.696 339.075 478.685C342.279 478.685 345.534 478.612 348.749 478.468C348.911 478.46 349.069 478.517 349.189 478.626C349.308 478.735 349.38 478.887 349.387 479.048C349.395 479.209 349.338 479.367 349.229 479.487C349.12 479.606 348.968 479.678 348.806 479.685C345.57 479.84 342.298 479.903 339.075 479.905Z" fill="#3774EF"/>
<path d="M335.912 467.151C316.302 467.192 296.812 464.107 278.177 458.014C278.023 457.964 277.896 457.854 277.823 457.71C277.75 457.566 277.737 457.399 277.788 457.245C277.838 457.092 277.948 456.964 278.092 456.892C278.237 456.819 278.404 456.806 278.558 456.857C305.555 465.706 334.186 468.1 363.658 463.972C363.737 463.961 363.818 463.966 363.896 463.986C363.973 464.006 364.046 464.041 364.11 464.089C364.174 464.137 364.228 464.197 364.269 464.266C364.31 464.335 364.337 464.411 364.348 464.49C364.359 464.569 364.355 464.65 364.335 464.727C364.315 464.805 364.28 464.878 364.231 464.942C364.183 465.006 364.123 465.059 364.054 465.1C363.985 465.141 363.909 465.168 363.829 465.179C354.581 466.483 345.252 467.142 335.912 467.151Z" fill="#3774EF"/>
<path d="M197.318 46.4823L488.056 45.6536C489.433 45.6482 490.795 45.9291 492.057 46.4784C493.319 47.0276 494.453 47.8333 495.386 48.844C496.319 49.8546 497.031 51.0482 497.476 52.3486C497.921 53.649 498.09 55.0277 497.972 56.3969L477.614 283.668C477.384 286.133 476.239 288.422 474.403 290.087C472.568 291.751 470.175 292.67 467.695 292.662L109.592 292.599C103.745 292.599 99.0983 287.113 99.6155 281.34L119.971 55.4758C120.415 50.3868 124.563 45.9253 129.708 45.9253L197.318 46.4823Z" fill="black"/>
<path d="M183.455 46.4878H474.146C475.528 46.488 476.894 46.7753 478.159 47.3314C479.424 47.8876 480.558 48.7003 481.491 49.7179C482.424 50.7356 483.134 51.9359 483.577 53.2425C484.019 54.549 484.185 55.9333 484.062 57.3071L463.805 284.554C463.585 287.028 462.445 289.329 460.609 291.006C458.774 292.682 456.376 293.612 453.888 293.613H95.7529C94.3711 293.612 93.0044 293.325 91.7399 292.769C90.4754 292.213 89.3407 291.4 88.4079 290.383C87.4752 289.365 86.7649 288.165 86.3222 286.858C85.8795 285.551 85.714 284.167 85.8364 282.793L106.094 55.5465C106.314 53.0729 107.454 50.7713 109.29 49.0948C111.125 47.4182 113.523 46.4882 116.01 46.4878H183.455Z" fill="white"/>
<path d="M95.7556 294.221C94.2887 294.222 92.8378 293.917 91.4951 293.328C90.1525 292.738 88.9477 291.875 87.9573 290.795C86.9668 289.715 86.2126 288.441 85.7425 287.054C85.2724 285.667 85.0967 284.197 85.2267 282.739L105.484 55.4921C105.706 52.8621 106.913 50.4121 108.864 48.6304C110.814 46.8488 113.366 45.8664 116.01 45.8792H183.455C183.539 45.8736 183.622 45.8852 183.701 45.9134C183.78 45.9415 183.853 45.9855 183.914 46.0427C183.975 46.0999 184.024 46.169 184.058 46.2458C184.091 46.3226 184.108 46.4054 184.108 46.4892C184.108 46.5729 184.091 46.6557 184.058 46.7325C184.024 46.8093 183.975 46.8784 183.914 46.9356C183.853 46.9928 183.78 47.0368 183.701 47.0649C183.622 47.0931 183.539 47.1047 183.455 47.0991H116.01C113.672 47.0881 111.415 47.957 109.69 49.5326C107.965 51.1083 106.897 53.2749 106.701 55.6008L86.4543 282.853C86.3395 284.143 86.4948 285.442 86.9105 286.668C87.3262 287.895 87.9931 289.021 88.8687 289.976C89.7444 290.932 90.8097 291.694 91.9968 292.216C93.1838 292.738 94.4667 293.007 95.7638 293.007L107.273 292.942C107.434 292.942 107.589 293.006 107.704 293.12C107.818 293.234 107.882 293.389 107.882 293.55C107.882 293.712 107.818 293.866 107.704 293.981C107.589 294.095 107.434 294.159 107.273 294.159L95.7556 294.221Z" fill="black"/>
<path d="M483.268 71.8759H483.232C483.152 71.8718 483.073 71.8518 483.001 71.8171C482.928 71.7824 482.864 71.7336 482.81 71.6737C482.757 71.6138 482.716 71.5439 482.69 71.4681C482.664 71.3923 482.653 71.312 482.658 71.232L483.453 57.2717C483.571 55.9808 483.418 54.6794 483.004 53.4508C482.59 52.2221 481.924 51.0932 481.048 50.1359C480.172 49.1787 479.106 48.4142 477.918 47.8913C476.729 47.3684 475.445 47.0986 474.146 47.0991H183.455C183.3 47.0887 183.154 47.02 183.048 46.9067C182.942 46.7934 182.883 46.6442 182.883 46.4891C182.883 46.334 182.942 46.1847 183.048 46.0714C183.154 45.9582 183.3 45.8894 183.455 45.8791H474.146C475.612 45.8794 477.063 46.1843 478.405 46.7745C479.747 47.3647 480.951 48.2273 481.941 49.3073C482.931 50.3873 483.684 51.6611 484.154 53.0477C484.624 54.4344 484.799 55.9034 484.67 57.3614L483.875 71.3026C483.866 71.4574 483.798 71.6029 483.685 71.7094C483.572 71.8159 483.423 71.8755 483.268 71.8759Z" fill="black"/>
<path d="M190.336 57.6496H462.882C468.364 57.6496 472.668 62.2143 472.181 67.5125L453.189 274.702C452.759 279.375 448.725 282.959 443.89 282.959H108.108C102.626 282.959 98.3253 278.397 98.8125 273.096L117.804 65.9122C118.232 61.2388 122.268 57.655 127.103 57.655L190.336 57.6496Z" fill="white"/>
<path d="M443.89 283.562H108.108C106.712 283.565 105.33 283.278 104.051 282.72C102.772 282.161 101.623 281.343 100.677 280.318C99.7745 279.346 99.0875 278.195 98.6611 276.939C98.2348 275.684 98.0786 274.353 98.2027 273.034L117.195 65.8522C117.657 60.8284 121.915 57.0408 127.103 57.0408H462.882C464.279 57.0375 465.661 57.3242 466.941 57.8827C468.221 58.4412 469.37 59.2592 470.316 60.285C471.218 61.2572 471.905 62.4086 472.331 63.6639C472.757 64.9191 472.912 66.25 472.788 67.5694L453.796 274.751C453.336 279.775 449.076 283.562 443.89 283.562ZM127.103 58.2581C122.552 58.2581 118.814 61.5701 118.411 65.9636L99.4195 273.145C99.3113 274.295 99.4476 275.456 99.8196 276.55C100.192 277.644 100.791 278.648 101.578 279.495C102.409 280.396 103.419 281.115 104.544 281.606C105.669 282.097 106.884 282.348 108.111 282.345H443.89C448.442 282.345 452.179 279.033 452.579 274.639L471.574 67.458C471.681 66.3076 471.545 65.1475 471.173 64.0534C470.801 62.9593 470.202 61.9558 469.415 61.1082C468.584 60.2072 467.573 59.4885 466.449 58.9978C465.324 58.5072 464.11 58.2553 462.882 58.2581H127.103Z" fill="black"/>
<path d="M375.281 135.86C321.441 79.6576 265.838 79.1686 208.403 136.605C248.904 186.256 326.676 193.666 375.281 135.86Z" fill="white"/>
<path d="M291.654 177.176H290.865C258.796 176.939 228.565 162.292 207.924 136.99C207.828 136.873 207.78 136.725 207.788 136.574C207.796 136.424 207.86 136.282 207.967 136.175C236.911 107.233 265.922 92.724 294.166 93.0174C321.597 93.3109 349.038 107.586 375.725 135.444C375.829 135.553 375.889 135.697 375.894 135.847C375.898 135.998 375.847 136.145 375.749 136.259C353.543 162.664 323.701 177.176 291.654 177.176ZM209.219 136.645C229.635 161.4 259.349 175.722 290.881 175.956H291.662C323.175 175.956 352.533 161.751 374.47 135.884C348.139 108.532 321.118 94.52 294.169 94.2292C266.382 93.9304 237.801 108.203 209.219 136.645Z" fill="#3774EF"/>
<path d="M292.873 165.672C309.212 165.672 322.457 152.451 322.457 136.143C322.457 119.834 309.212 106.614 292.873 106.614C276.535 106.614 263.29 119.834 263.29 136.143C263.29 152.451 276.535 165.672 292.873 165.672Z" fill="#3774EF"/>
<path d="M325.471 88.548L316.903 84.1885L265.652 184.546L274.22 188.906L325.471 88.548Z" fill="white"/>
<path d="M265.664 185.153C265.569 185.152 265.476 185.129 265.391 185.085C265.248 185.012 265.139 184.886 265.088 184.733C265.037 184.581 265.048 184.414 265.119 184.27L316.367 83.9126C316.449 83.7864 316.575 83.6948 316.72 83.6552C316.866 83.6157 317.021 83.631 317.155 83.6983C317.29 83.7655 317.395 83.88 317.451 84.0198C317.506 84.1596 317.508 84.3149 317.456 84.456L266.208 184.819C266.157 184.919 266.079 185.004 265.983 185.063C265.887 185.122 265.777 185.153 265.664 185.153Z" fill="#3774EF"/>
<path d="M274.233 189.511C274.138 189.512 274.045 189.489 273.961 189.446C273.889 189.41 273.825 189.361 273.772 189.301C273.72 189.241 273.68 189.171 273.655 189.095C273.629 189.019 273.619 188.939 273.625 188.86C273.631 188.78 273.652 188.702 273.688 188.631L324.937 88.2708C324.969 88.1945 325.017 88.1257 325.077 88.0686C325.138 88.0115 325.209 87.9674 325.287 87.9388C325.365 87.9103 325.448 87.8979 325.531 87.9026C325.614 87.9072 325.695 87.9288 325.77 87.9659C325.844 88.003 325.91 88.0549 325.964 88.1183C326.017 88.1818 326.057 88.2555 326.081 88.335C326.105 88.4144 326.112 88.4979 326.103 88.5803C326.093 88.6627 326.067 88.7423 326.025 88.8142L274.777 189.174C274.727 189.276 274.65 189.361 274.553 189.421C274.457 189.48 274.346 189.512 274.233 189.511Z" fill="#3774EF"/>
<path d="M399.085 416.136C391.684 410.406 383.962 405.061 376.078 399.967C360.084 389.623 343.34 380.379 326.45 371.421C317.562 366.707 308.384 362.455 299.308 358.059C290.178 353.646 281.033 349.262 271.873 344.905C263.51 340.911 255.151 336.911 246.794 332.904C224.003 270.743 199.039 200.271 202.991 200.271L502.875 191.758C509.952 191.758 515.124 197.532 514.378 204.629L492.923 412.949C492.193 420.046 485.845 425.819 478.768 425.819H411.898C407.717 422.486 403.302 419.407 399.085 416.136Z" fill="white"/>
<path d="M478.768 426.428H411.898C411.759 426.428 411.625 426.381 411.517 426.295C409.171 424.426 406.713 422.602 404.333 420.842C402.48 419.483 400.563 418.051 398.712 416.617C391.907 411.343 384.389 406.064 375.746 400.477C358.886 389.577 341.22 379.945 326.164 371.948C319.294 368.305 312.129 364.884 305.204 361.555C303.148 360.568 301.095 359.582 299.044 358.597C289.969 354.211 280.891 349.872 271.614 345.443C263.248 341.458 254.888 337.458 246.533 333.442C246.389 333.374 246.277 333.252 246.223 333.102C199.093 204.55 201.467 201.162 202.248 200.048C202.329 199.925 202.44 199.824 202.57 199.754C202.7 199.684 202.846 199.648 202.994 199.649L502.861 191.139C506.449 191.139 509.666 192.533 511.966 195.068C514.266 197.603 515.363 201.045 514.988 204.681L493.53 413C492.768 420.41 486.148 426.428 478.768 426.428ZM412.11 425.208H478.768C485.538 425.208 491.616 419.682 492.316 412.886L513.771 204.569C514.109 201.284 513.145 198.203 511.049 195.894C510.015 194.762 508.753 193.862 507.345 193.253C505.938 192.644 504.417 192.34 502.883 192.361L203.203 200.874C202.507 203.336 207.591 224.194 247.282 332.461C255.558 336.446 263.844 340.41 272.137 344.354C281.416 348.785 290.497 353.124 299.575 357.51C301.622 358.499 303.674 359.484 305.73 360.466C312.668 363.792 319.843 367.229 326.736 370.883C341.816 378.879 359.509 388.528 376.411 399.456C385.08 405.061 392.62 410.359 399.461 415.655C401.304 417.081 403.212 418.494 405.06 419.864C407.385 421.589 409.799 423.374 412.11 425.208Z" fill="black"/>
<path d="M193.856 192.486H496.698C503.384 192.486 508.242 197.92 507.551 204.629L486.096 412.949C485.404 419.654 479.427 425.091 472.741 425.091H169.899C163.216 425.091 158.357 419.657 159.046 412.949L180.501 204.629C181.182 197.923 187.17 192.486 193.856 192.486Z" fill="white"/>
<path d="M397.267 425.7L259.232 425.572C259.07 425.572 258.915 425.508 258.8 425.394C258.686 425.28 258.622 425.125 258.622 424.963C258.622 424.802 258.686 424.647 258.8 424.533C258.915 424.419 259.07 424.355 259.232 424.355L397.267 424.482C397.429 424.482 397.584 424.547 397.698 424.661C397.813 424.775 397.877 424.93 397.877 425.091C397.877 425.252 397.813 425.407 397.698 425.521C397.584 425.636 397.429 425.7 397.267 425.7Z" fill="black"/>
<path d="M177.082 238.456H177.02C176.859 238.439 176.712 238.359 176.61 238.234C176.508 238.109 176.459 237.949 176.475 237.788L179.897 204.569C180.618 197.573 186.882 191.88 193.859 191.88H496.698C501.383 191.88 506.302 196.228 508.169 200.265C508.209 200.35 508.229 200.443 508.226 200.537L507.328 233.922C507.314 234.077 507.242 234.221 507.125 234.324C507.009 234.428 506.857 234.483 506.701 234.479C506.546 234.475 506.397 234.412 506.286 234.302C506.176 234.192 506.111 234.045 506.106 233.889L507.001 200.651C505.24 196.98 500.721 193.1 496.698 193.1H193.856C187.486 193.1 181.77 198.301 181.111 204.694L177.69 237.913C177.673 238.062 177.602 238.2 177.49 238.3C177.378 238.4 177.233 238.456 177.082 238.456Z" fill="black"/>
<path d="M201.897 200.526H488.11C494.425 200.526 498.998 205.588 498.353 211.832L477.864 405.762C477.206 412.011 471.549 417.068 465.231 417.068H179.021C172.703 417.068 168.116 412.006 168.778 405.762L189.266 211.832C189.925 205.58 195.582 200.526 201.897 200.526Z" fill="white"/>
<path d="M465.231 417.668H179.021C175.781 417.668 172.866 416.416 170.811 414.136C169.796 412.995 169.035 411.652 168.58 410.196C168.124 408.74 167.984 407.203 168.168 405.689L188.657 211.756C189.348 205.235 195.288 199.907 201.897 199.907H488.11C491.349 199.907 494.265 201.159 496.317 203.439C497.333 204.579 498.095 205.922 498.55 207.378C499.006 208.835 499.146 210.372 498.96 211.886L478.471 405.819C477.783 412.354 471.843 417.668 465.231 417.668ZM201.897 201.118C195.895 201.118 190.5 205.944 189.871 211.875L169.382 405.808C169.216 407.153 169.339 408.518 169.742 409.812C170.145 411.106 170.819 412.299 171.72 413.313C173.538 415.329 176.13 416.44 179.021 416.44H465.231C471.236 416.44 476.631 411.612 477.257 405.681L497.757 211.758C497.923 210.414 497.801 209.05 497.398 207.757C496.995 206.463 496.322 205.27 495.422 204.257C493.603 202.238 491.009 201.129 488.121 201.129L201.897 201.118Z" fill="black"/>
<path d="M360.356 334.311L345.543 332.35L346.147 273.952L361.635 275.202L361.488 333.347C361.488 333.488 361.456 333.627 361.397 333.755C361.337 333.883 361.251 333.997 361.144 334.088C361.036 334.18 360.91 334.247 360.774 334.286C360.638 334.324 360.496 334.333 360.356 334.311Z" fill="#36CA8E"/>
<path d="M360.345 324.367L306.848 324.267C306.299 324.258 305.76 324.42 305.307 324.732C304.854 325.043 304.51 325.487 304.322 326.003L286.825 374.193L296.216 378.154L313.893 336.146C314.121 335.609 314.503 335.152 314.992 334.834C315.481 334.515 316.053 334.348 316.637 334.355H360.293C360.394 334.357 360.493 334.337 360.586 334.298C360.678 334.258 360.761 334.2 360.829 334.126C360.898 334.053 360.95 333.966 360.982 333.871C361.014 333.776 361.026 333.675 361.017 333.575L360.345 324.367Z" fill="#36CA8E"/>
<path d="M296.619 377.605C296.05 379.007 294.419 379.602 292.969 378.939L276.908 371.584C275.4 370.897 274.646 369.139 275.229 367.688L276.076 365.55C276.718 363.919 278.591 363.232 280.262 363.995L298.832 371.815L296.619 377.605Z" fill="#36CA8E"/>
<path d="M349.405 309.176H311.432C311.097 309.168 310.775 309.037 310.531 308.807C310.286 308.578 310.135 308.266 310.107 307.932L309.747 302.924C309.733 302.765 309.752 302.605 309.803 302.455C309.855 302.304 309.937 302.165 310.045 302.048C310.154 301.931 310.285 301.838 310.432 301.775C310.578 301.712 310.737 301.681 310.896 301.682H348.861C349.197 301.689 349.518 301.82 349.763 302.049C350.009 302.278 350.16 302.59 350.189 302.924L350.548 307.932C350.563 308.09 350.545 308.25 350.494 308.4C350.443 308.551 350.361 308.69 350.253 308.807C350.146 308.924 350.014 309.018 349.868 309.081C349.722 309.145 349.564 309.177 349.405 309.176Z" fill="#36CA8E"/>
<path d="M361.722 268.896C365.966 264.807 365.837 257.801 361.434 253.248C357.031 248.695 350.021 248.32 345.777 252.409C341.533 256.499 341.662 263.505 346.065 268.058C350.468 272.611 357.478 272.986 361.722 268.896Z" fill="#36CA8E"/>
<path d="M379.454 320.411C377.078 316.691 374.182 313.328 370.855 310.423C369.442 309.137 367.937 307.956 366.35 306.891L366.385 318.96C372.216 324.565 375.559 332.602 376.111 340.284C377.309 356.98 364.902 370.563 348.259 370.563C338.076 370.563 327.991 365.128 321.583 356.806C320.19 354.973 318.995 352.999 318.017 350.915C316.558 348.148 315.673 345.117 315.412 342.001L310.139 353.633C311.37 356.268 312.633 358.602 313.986 360.192C321.82 371.935 334.877 378.999 348.499 378.999C357.34 378.999 366.105 376.249 372.583 370.677C378.972 365.175 383.787 356.95 385.089 348.397C386.599 338.515 385.064 329.138 379.454 320.411Z" fill="#36CA8E"/>
<path d="M228.736 463.078H130.171C125.924 463.078 122.777 459.633 123.145 455.381L139.807 262.918C140.174 258.669 143.917 255.223 148.163 255.223L241.737 254.136C252.483 254.136 254.119 258.679 253.752 262.929L237.093 455.386C236.726 459.633 232.983 463.078 228.736 463.078Z" fill="black"/>
<path d="M222.805 463.078H124.239C119.993 463.078 116.846 459.622 117.214 455.356L133.859 262.282C134.226 258.019 137.967 254.56 142.213 254.56H240.779C245.028 254.56 248.172 258.019 247.804 262.282L231.162 455.356C230.794 459.622 227.051 463.078 222.805 463.078Z" fill="white"/>
<path d="M222.805 463.687H124.239C123.175 463.699 122.121 463.487 121.144 463.066C120.167 462.645 119.29 462.023 118.569 461.242C117.843 460.442 117.294 459.499 116.956 458.474C116.617 457.449 116.499 456.365 116.607 455.291L133.249 262.217C133.644 257.652 137.664 253.938 142.216 253.938H240.779C241.843 253.926 242.898 254.137 243.875 254.558C244.851 254.98 245.729 255.601 246.449 256.383C247.176 257.182 247.726 258.124 248.065 259.149C248.404 260.173 248.523 261.258 248.414 262.331L231.769 455.408C231.377 459.973 227.354 463.687 222.805 463.687ZM142.216 255.172C138.282 255.172 134.806 258.383 134.466 262.334L117.823 455.411C117.73 456.316 117.828 457.23 118.112 458.095C118.395 458.96 118.858 459.755 119.47 460.429C120.078 461.084 120.816 461.603 121.638 461.954C122.459 462.305 123.346 462.48 124.239 462.467H222.805C226.736 462.467 230.212 459.256 230.552 455.305L247.197 262.231C247.292 261.326 247.195 260.412 246.914 259.547C246.633 258.682 246.173 257.886 245.564 257.209C244.956 256.555 244.217 256.035 243.395 255.684C242.573 255.333 241.686 255.159 240.792 255.172H142.216Z" fill="black"/>
<path d="M192.879 263.414C194.044 262.226 194.102 260.397 193.009 259.33C191.915 258.263 190.085 258.362 188.921 259.55C187.756 260.739 187.698 262.568 188.791 263.635C189.884 264.702 191.715 264.603 192.879 263.414Z" fill="black"/>
<path d="M122.843 455.623L138.734 271.268C138.781 270.787 139.004 270.34 139.359 270.011C139.714 269.683 140.177 269.495 140.661 269.485H239.758C239.987 269.48 240.214 269.524 240.425 269.614C240.636 269.704 240.825 269.838 240.979 270.007C241.134 270.176 241.251 270.375 241.322 270.593C241.393 270.81 241.416 271.04 241.391 271.268L225.5 455.623C225.452 456.104 225.229 456.551 224.874 456.88C224.518 457.208 224.054 457.395 223.57 457.405H124.487C124.257 457.412 124.028 457.37 123.816 457.281C123.604 457.191 123.413 457.058 123.257 456.889C123.101 456.72 122.984 456.519 122.912 456.301C122.841 456.082 122.817 455.851 122.843 455.623Z" fill="white"/>
<path d="M223.559 458.014H124.476C124.163 458.018 123.853 457.955 123.566 457.83C123.279 457.706 123.022 457.522 122.811 457.291C122.601 457.06 122.441 456.787 122.344 456.49C122.247 456.193 122.214 455.879 122.247 455.568L138.138 271.213C138.201 270.581 138.494 269.994 138.962 269.563C139.429 269.132 140.039 268.887 140.675 268.874H239.758C240.069 268.87 240.377 268.932 240.662 269.055C240.947 269.178 241.203 269.36 241.413 269.588C241.625 269.82 241.786 270.094 241.885 270.393C241.984 270.691 242.019 271.007 241.987 271.319L226.096 455.677C226.032 456.309 225.739 456.895 225.271 457.326C224.804 457.756 224.195 458.001 223.559 458.014ZM140.661 270.096C140.331 270.108 140.015 270.239 139.773 270.464C139.53 270.689 139.377 270.993 139.341 271.322L123.45 455.677C123.434 455.821 123.449 455.966 123.494 456.104C123.538 456.242 123.612 456.368 123.708 456.476C123.804 456.579 123.921 456.661 124.051 456.717C124.181 456.772 124.321 456.799 124.462 456.797H223.545C223.876 456.785 224.192 456.654 224.434 456.429C224.677 456.204 224.83 455.9 224.865 455.571L240.757 271.216C240.775 271.069 240.761 270.921 240.716 270.78C240.671 270.64 240.597 270.51 240.498 270.401C240.402 270.298 240.285 270.216 240.155 270.161C240.025 270.107 239.885 270.08 239.744 270.083L140.661 270.096Z" fill="black"/>
<path d="M146.067 376.48H160.032L186.122 389.18C187.377 389.772 188.757 388.827 188.774 387.411L189.174 344.913C189.19 343.463 187.919 342.455 186.58 342.954L160.584 353.594H145.937C144.698 353.594 143.686 353.921 143.672 355.187L143.471 374.13C143.454 375.619 144.619 376.48 146.067 376.48Z" fill="#3774EF"/>
<path d="M195.794 382.569C195.843 381.903 196.105 381.27 196.54 380.762C200.658 376.051 202.978 370.853 203.435 365.318C203.892 359.784 202.452 354.304 199.158 349.032C198.774 348.395 198.626 347.642 198.742 346.907C198.857 346.172 199.228 345.501 199.79 345.011C200.049 344.788 200.355 344.626 200.684 344.535C201.014 344.444 201.359 344.427 201.696 344.485C202.033 344.543 202.353 344.675 202.633 344.871C202.913 345.067 203.146 345.323 203.315 345.62C207.257 351.923 209.031 358.868 208.487 365.699C207.943 372.53 205.022 379.118 200.095 384.756C199.099 385.898 197.495 385.93 196.515 384.83C196.249 384.521 196.048 384.161 195.924 383.773C195.8 383.384 195.756 382.975 195.794 382.569Z" fill="#3774EF"/>
<path d="M204.336 389.889C204.387 389.215 204.655 388.575 205.101 388.066C211.018 381.406 214.356 374.046 214.998 366.183C215.641 358.319 213.564 350.549 208.808 343.088C208.419 342.453 208.266 341.702 208.376 340.966C208.486 340.231 208.852 339.557 209.41 339.064C209.667 338.837 209.971 338.67 210.3 338.574C210.629 338.479 210.976 338.458 211.314 338.512C211.653 338.567 211.975 338.696 212.258 338.89C212.54 339.084 212.776 339.338 212.948 339.634C215.524 343.628 217.479 347.989 218.746 352.567C221.263 361.757 220.456 371.537 216.468 380.192C214.464 384.529 211.819 388.543 208.623 392.098C207.616 393.231 206.013 393.247 205.041 392.133C204.78 391.824 204.584 391.467 204.463 391.082C204.342 390.696 204.299 390.291 204.336 389.889Z" fill="#3774EF"/>
<path d="M179.102 332.086L173.476 330.051L150.42 394.856L156.046 396.888L179.102 332.086Z" fill="white"/>
<path d="M150.423 395.464C150.325 395.465 150.228 395.442 150.14 395.397C150.053 395.352 149.978 395.287 149.921 395.207C149.865 395.127 149.828 395.034 149.815 394.937C149.802 394.84 149.812 394.741 149.846 394.649L172.901 329.858C172.956 329.706 173.068 329.581 173.214 329.512C173.361 329.442 173.529 329.433 173.681 329.487C173.834 329.541 173.959 329.654 174.029 329.8C174.098 329.946 174.107 330.113 174.053 330.266L150.997 395.068C150.954 395.185 150.875 395.285 150.772 395.356C150.67 395.427 150.548 395.465 150.423 395.464Z" fill="#3774EF"/>
<path d="M156.046 397.497C155.977 397.497 155.908 397.485 155.842 397.462C155.69 397.407 155.565 397.295 155.496 397.149C155.427 397.004 155.418 396.836 155.472 396.684L178.528 331.882C178.555 331.807 178.596 331.738 178.65 331.678C178.704 331.619 178.768 331.57 178.841 331.536C178.913 331.501 178.992 331.482 179.072 331.477C179.152 331.473 179.232 331.485 179.308 331.512C179.383 331.538 179.453 331.58 179.513 331.633C179.572 331.687 179.621 331.752 179.655 331.824C179.69 331.896 179.709 331.975 179.714 332.055C179.718 332.135 179.706 332.215 179.679 332.29L156.624 397.092C156.581 397.211 156.503 397.314 156.4 397.386C156.296 397.459 156.173 397.497 156.046 397.497Z" fill="#3774EF"/>
<path d="M489.626 340.004H444.323C441.108 340.004 438.503 342.484 438.503 345.541V365.723L446.231 366.316L446.827 353.592C446.827 351.079 446.463 347.527 449.103 347.527H489.626V340.004Z" fill="white"/>
<path d="M446.231 366.916H446.185L438.457 366.324C438.304 366.312 438.16 366.243 438.056 366.13C437.951 366.017 437.893 365.869 437.894 365.715V345.541C437.894 342.153 440.776 339.395 444.323 339.395H489.626C489.788 339.395 489.943 339.459 490.058 339.573C490.172 339.687 490.236 339.842 490.236 340.004V347.519C490.237 347.599 490.221 347.679 490.191 347.753C490.16 347.827 490.115 347.894 490.059 347.951C490.002 348.008 489.935 348.053 489.86 348.084C489.786 348.115 489.707 348.13 489.626 348.13H449.103C448.924 348.118 448.744 348.143 448.576 348.203C448.407 348.264 448.253 348.36 448.123 348.484C447.377 349.239 447.405 351.184 447.429 352.749C447.429 353.021 447.429 353.315 447.429 353.584L446.833 366.335C446.827 366.492 446.76 366.64 446.646 366.748C446.532 366.857 446.381 366.917 446.223 366.916H446.231ZM439.116 365.153L445.649 365.653L446.212 353.554C446.212 353.32 446.212 353.046 446.212 352.766C446.185 350.883 446.155 348.747 447.258 347.628C447.501 347.388 447.79 347.201 448.109 347.078C448.427 346.955 448.767 346.898 449.109 346.91H489.022V340.612H444.323C441.451 340.612 439.116 342.824 439.116 345.541V365.153Z" fill="black"/>
<path d="M423.039 419.475C423.039 454.77 440.393 483.38 461.802 483.38C483.211 483.38 500.564 454.77 500.564 419.475C500.564 384.18 483.208 355.57 461.802 355.57C440.395 355.57 423.039 384.18 423.039 419.475ZM426.897 419.475C426.897 387.685 442.524 361.93 461.802 361.93C481.079 361.93 496.706 387.694 496.706 419.475C496.706 451.257 481.079 477.02 461.802 477.02C442.524 477.02 426.897 451.257 426.897 419.475Z" fill="white"/>
<path d="M461.802 483.989C440.09 483.989 422.427 455.049 422.427 419.475C422.427 383.9 440.09 354.961 461.802 354.961C483.513 354.961 501.173 383.9 501.173 419.475C501.173 455.049 483.51 483.989 461.802 483.989ZM461.802 356.178C440.763 356.178 423.649 384.574 423.649 419.486C423.649 454.397 440.763 482.793 461.802 482.793C482.84 482.793 499.954 454.397 499.954 419.486C499.954 384.574 482.838 356.178 461.802 356.178ZM461.802 477.631C442.203 477.631 426.284 451.547 426.284 419.486C426.284 387.424 442.216 361.341 461.802 361.341C481.387 361.341 497.316 387.424 497.316 419.486C497.316 451.547 481.384 477.631 461.802 477.631ZM461.802 362.539C442.891 362.539 427.504 388.079 427.504 419.475C427.504 450.871 442.889 476.411 461.802 476.411C480.714 476.411 496.099 450.871 496.099 419.475C496.099 388.079 480.712 362.539 461.802 362.539Z" fill="black"/>
<path d="M488.834 402.947H552.639L551.844 299.071C540.352 275.139 492.196 284.361 488.834 299.27V402.947Z" fill="white"/>
<path d="M552.639 403.548H488.834C488.675 403.546 488.522 403.483 488.409 403.37C488.297 403.258 488.232 403.106 488.23 402.947V299.259C488.225 299.214 488.225 299.168 488.23 299.123C489.825 292.059 501.318 285.763 515.557 284.152C529.219 282.609 546.071 285.644 552.389 298.797C552.428 298.882 552.449 298.975 552.449 299.069L553.241 402.947C553.241 403.028 553.226 403.107 553.195 403.181C553.165 403.256 553.12 403.323 553.063 403.38C553.007 403.437 552.939 403.483 552.865 403.514C552.791 403.545 552.712 403.561 552.631 403.561L552.639 403.548ZM489.444 402.328H552.024L551.235 299.202C545.151 286.73 528.914 283.872 515.701 285.364C502.006 286.912 490.985 292.779 489.444 299.327V402.328Z" fill="black"/>
<path d="M552.903 403.499H474.19V400.097C474.19 398.596 474.787 397.156 475.85 396.095C476.914 395.034 478.356 394.437 479.86 394.437H547.233C548.737 394.437 550.179 395.034 551.243 396.095C552.306 397.156 552.903 398.596 552.903 400.097V403.499Z" fill="white"/>
<path d="M552.906 404.11H474.192C474.112 404.11 474.032 404.094 473.958 404.064C473.884 404.033 473.817 403.988 473.76 403.931C473.704 403.874 473.659 403.807 473.628 403.733C473.598 403.658 473.582 403.579 473.583 403.499V400.097C473.585 398.435 474.247 396.842 475.424 395.667C476.601 394.492 478.198 393.831 479.862 393.829H547.236C548.901 393.831 550.497 394.492 551.674 395.667C552.851 396.842 553.514 398.435 553.516 400.097V403.491C553.517 403.571 553.503 403.652 553.473 403.727C553.443 403.802 553.398 403.87 553.341 403.928C553.284 403.986 553.217 404.031 553.142 404.063C553.067 404.094 552.987 404.11 552.906 404.11ZM474.802 402.89H552.294V400.097C552.292 398.759 551.759 397.475 550.811 396.529C549.862 395.582 548.577 395.05 547.236 395.049H479.862C478.521 395.05 477.235 395.582 476.287 396.529C475.338 397.475 474.804 398.758 474.802 400.097V402.89Z" fill="black"/>
<path d="M561.815 280.101C566.522 278.84 574.037 279.848 580.225 281.291C581.587 281.291 582.893 280.751 583.857 279.789C584.82 278.828 585.361 277.524 585.361 276.164C585.361 274.804 584.82 273.5 583.857 272.538C582.893 271.577 581.587 271.037 580.225 271.037H561.266C560.704 271.037 560.166 271.26 559.769 271.657C559.372 272.053 559.148 272.59 559.148 273.151V278.063C559.148 278.387 559.223 278.707 559.366 278.998C559.51 279.289 559.719 279.542 559.977 279.739C560.235 279.937 560.535 280.072 560.854 280.134C561.173 280.197 561.502 280.185 561.815 280.101Z" fill="white"/>
<path d="M580.236 281.899C580.189 281.899 580.142 281.894 580.097 281.883C572.426 280.095 565.822 279.66 561.984 280.69C561.58 280.8 561.156 280.815 560.745 280.734C560.334 280.653 559.947 280.479 559.614 280.224C559.282 279.969 559.013 279.642 558.828 279.266C558.643 278.891 558.548 278.478 558.549 278.06V273.15C558.549 272.43 558.836 271.739 559.346 271.229C559.857 270.72 560.549 270.433 561.271 270.433H580.236C580.99 270.433 581.737 270.582 582.435 270.87C583.132 271.158 583.765 271.581 584.299 272.113C584.832 272.646 585.256 273.278 585.544 273.974C585.833 274.67 585.982 275.416 585.982 276.169C585.982 276.922 585.833 277.668 585.544 278.364C585.256 279.06 584.832 279.692 584.299 280.225C583.765 280.757 583.132 281.18 582.435 281.468C581.737 281.756 580.99 281.905 580.236 281.905V281.899ZM567.072 278.911C571.792 278.911 577.021 279.916 580.304 280.677C581.503 280.668 582.651 280.183 583.493 279.33C584.335 278.477 584.803 277.325 584.794 276.127C584.785 274.929 584.299 273.784 583.445 272.944C582.59 272.103 581.435 271.636 580.236 271.645H561.276C560.877 271.646 560.495 271.804 560.213 272.086C559.931 272.368 559.772 272.749 559.771 273.148V278.057C559.77 278.289 559.823 278.518 559.926 278.726C560.028 278.934 560.178 279.115 560.362 279.256C560.547 279.396 560.762 279.492 560.99 279.536C561.218 279.58 561.453 279.57 561.677 279.508C563.438 279.081 565.248 278.881 567.061 278.913L567.072 278.911Z" fill="black"/>
<path d="M553.034 404.306H475.559C475.397 404.306 475.242 404.242 475.128 404.127C475.013 404.013 474.949 403.859 474.949 403.697C474.949 403.536 475.013 403.381 475.128 403.267C475.242 403.153 475.397 403.088 475.559 403.088H552.416L550.903 283.44C550.903 281.023 551.865 278.704 553.577 276.994C555.289 275.284 557.61 274.322 560.032 274.319C560.194 274.319 560.349 274.383 560.464 274.497C560.578 274.611 560.642 274.766 560.642 274.927C560.642 275.089 560.578 275.244 560.464 275.358C560.349 275.472 560.194 275.536 560.032 275.536C557.935 275.539 555.925 276.372 554.442 277.852C552.959 279.332 552.125 281.339 552.122 283.432L553.644 403.689C553.646 403.77 553.631 403.85 553.601 403.925C553.571 404 553.527 404.069 553.47 404.126C553.413 404.184 553.345 404.229 553.27 404.26C553.195 404.291 553.115 404.306 553.034 404.306Z" fill="black"/>
<path d="M468.726 481.794H390.015V478.392C390.015 476.891 390.613 475.451 391.676 474.39C392.739 473.328 394.182 472.732 395.685 472.732H463.062C464.566 472.732 466.008 473.328 467.071 474.39C468.134 475.451 468.732 476.891 468.732 478.392V481.794H468.726Z" fill="white"/>
<path d="M468.726 482.402H390.015C389.935 482.402 389.856 482.386 389.781 482.355C389.707 482.325 389.64 482.28 389.583 482.223C389.527 482.166 389.482 482.099 389.451 482.024C389.421 481.95 389.405 481.871 389.406 481.791V478.389C389.408 476.727 390.07 475.134 391.247 473.959C392.425 472.784 394.021 472.123 395.686 472.121H463.059C464.724 472.123 466.32 472.784 467.497 473.959C468.674 475.134 469.337 476.727 469.339 478.389V481.791C469.339 481.953 469.274 482.108 469.16 482.223C469.045 482.338 468.889 482.402 468.726 482.402ZM390.625 481.182H468.117V478.389C468.115 477.05 467.582 475.767 466.634 474.821C465.686 473.874 464.4 473.342 463.059 473.341H395.68C394.339 473.341 393.052 473.873 392.104 474.82C391.155 475.766 390.621 477.05 390.62 478.389L390.625 481.182Z" fill="black"/>
<path d="M418.273 448.415C418.273 448.415 400.389 418.163 413.564 378.494C426.739 338.825 493.475 354.005 493.475 354.005L418.273 448.415Z" fill="black"/>
<path d="M432.605 459.294C432.605 459.294 434.935 466.16 434.891 471.379C434.877 472.394 434.469 473.364 433.753 474.086C433.038 474.807 432.07 475.224 431.053 475.248C423.704 475.452 405.362 475.879 396.175 475.354C394.855 475.278 394.09 473.977 394.765 472.95C397.311 469.083 404.211 461.144 419.561 457.533L432.605 459.294Z" fill="white"/>
<path d="M408.422 476.216C403.778 476.216 399.39 476.148 396.143 475.963C395.725 475.945 395.32 475.819 394.966 475.596C394.613 475.374 394.324 475.063 394.129 474.694C393.963 474.368 393.887 474.003 393.909 473.638C393.931 473.272 394.05 472.92 394.254 472.615C397.09 468.303 404.132 460.535 419.422 456.941C419.495 456.926 419.57 456.926 419.642 456.941L432.686 458.701C432.799 458.717 432.905 458.764 432.993 458.836C433.08 458.909 433.146 459.004 433.182 459.112C433.28 459.383 435.545 466.133 435.501 471.395C435.491 472.57 435.022 473.694 434.195 474.529C433.367 475.364 432.246 475.844 431.07 475.868C426.26 475.99 416.912 476.216 408.422 476.216ZM419.582 458.153C404.78 461.663 397.997 469.135 395.266 473.284C395.179 473.409 395.128 473.555 395.119 473.707C395.109 473.859 395.141 474.01 395.212 474.145C395.309 474.324 395.452 474.473 395.626 474.579C395.8 474.684 395.999 474.742 396.203 474.746C405.343 475.267 423.603 474.843 431.029 474.64C431.888 474.623 432.707 474.274 433.313 473.665C433.918 473.057 434.263 472.237 434.273 471.379C434.309 466.994 432.599 461.326 432.134 459.853L419.582 458.153Z" fill="black"/>
<path d="M537.589 339.382C537.589 339.382 559.502 390.123 523.119 394.011C486.736 397.899 470.087 394.41 470.087 394.41L439.358 461.619C439.358 461.619 425.77 462.853 414.351 455.577C414.351 455.577 422.174 402.654 433.574 375.695C444.974 348.736 504.399 349.484 504.399 349.484L537.589 339.382Z" fill="black"/>
<path d="M413.825 457.31C413.792 457.313 413.758 457.313 413.725 457.31C413.565 457.283 413.422 457.195 413.328 457.063C413.233 456.932 413.195 456.769 413.221 456.609C413.602 454.308 422.666 399.931 433.013 375.453C436.887 366.283 446.544 359.295 461.717 354.681C461.794 354.658 461.874 354.65 461.954 354.658C462.034 354.666 462.111 354.689 462.182 354.727C462.252 354.765 462.315 354.816 462.366 354.878C462.417 354.94 462.455 355.011 462.478 355.088C462.501 355.164 462.509 355.244 462.501 355.324C462.493 355.404 462.47 355.481 462.432 355.551C462.394 355.622 462.343 355.684 462.281 355.735C462.219 355.786 462.148 355.824 462.071 355.847C447.263 360.349 437.864 367.106 434.137 375.926C423.845 400.274 414.811 454.512 414.427 456.807C414.402 456.949 414.328 457.076 414.218 457.168C414.108 457.26 413.969 457.31 413.825 457.31Z" fill="white"/>
<path d="M415.355 467.179C415.255 467.178 415.157 467.153 415.069 467.105C414.982 467.058 414.907 466.99 414.851 466.907L410.542 460.611C410.463 460.478 410.438 460.319 410.472 460.167C410.506 460.016 410.596 459.883 410.725 459.795C410.853 459.708 411.01 459.672 411.164 459.696C411.318 459.72 411.457 459.802 411.552 459.924L415.861 466.219C415.952 466.353 415.985 466.518 415.955 466.676C415.925 466.835 415.834 466.975 415.701 467.067C415.599 467.138 415.479 467.177 415.355 467.179Z" fill="black"/>
<path d="M431.859 472.18H400.493C400.331 472.18 400.176 472.116 400.061 472.002C399.947 471.888 399.883 471.733 399.883 471.572C399.883 471.41 399.947 471.256 400.061 471.141C400.176 471.027 400.331 470.963 400.493 470.963H431.859C432.021 470.963 432.176 471.027 432.29 471.141C432.404 471.256 432.469 471.41 432.469 471.572C432.469 471.733 432.404 471.888 432.29 472.002C432.176 472.116 432.021 472.18 431.859 472.18Z" fill="black"/>
<path d="M409.903 468.398C409.801 468.4 409.7 468.376 409.61 468.328C409.519 468.281 409.442 468.211 409.386 468.127L406.024 462.777C405.949 462.64 405.929 462.48 405.969 462.329C406.009 462.178 406.104 462.048 406.237 461.965C406.369 461.883 406.529 461.854 406.682 461.884C406.835 461.915 406.971 462.003 407.061 462.13L410.409 467.464C410.468 467.556 410.5 467.662 410.504 467.771C410.507 467.88 410.481 467.988 410.428 468.084C410.375 468.18 410.297 468.259 410.203 468.315C410.109 468.37 410.001 468.399 409.892 468.398H409.903Z" fill="black"/>
<path d="M515.889 419.475C515.889 454.77 533.245 483.38 554.651 483.38C576.057 483.38 593.413 454.77 593.413 419.475C593.413 384.18 576.06 355.57 554.651 355.57C533.242 355.57 515.889 384.18 515.889 419.475ZM519.746 419.475C519.746 387.685 535.373 361.93 554.651 361.93C573.928 361.93 589.556 387.694 589.556 419.475C589.556 451.257 573.928 477.02 554.651 477.02C535.373 477.02 519.746 451.257 519.746 419.475Z" fill="white"/>
<path d="M554.648 483.989C532.94 483.989 515.276 455.049 515.276 419.475C515.276 383.9 532.94 354.961 554.648 354.961C576.357 354.961 594.023 383.9 594.023 419.475C594.023 455.049 576.362 483.989 554.648 483.989ZM554.648 356.178C533.612 356.178 516.496 384.574 516.496 419.486C516.496 454.397 533.612 482.793 554.648 482.793C575.684 482.793 592.8 454.397 592.8 419.486C592.8 384.574 575.69 356.178 554.648 356.178ZM554.648 477.631C535.066 477.631 519.133 451.547 519.133 419.486C519.133 387.424 535.066 361.341 554.648 361.341C574.231 361.341 590.166 387.424 590.166 419.486C590.166 451.547 574.247 477.631 554.648 477.631ZM554.648 362.539C535.738 362.539 520.35 388.079 520.35 419.475C520.35 450.871 535.735 476.411 554.648 476.411C573.561 476.411 588.946 450.871 588.946 419.475C588.946 388.079 573.561 362.539 554.648 362.539Z" fill="black"/>
<path d="M554.651 428.634C557.719 428.634 560.207 424.534 560.207 419.475C560.207 414.417 557.719 410.316 554.651 410.316C551.583 410.316 549.095 414.417 549.095 419.475C549.095 424.534 551.583 428.634 554.651 428.634Z" fill="white"/>
<path d="M554.648 429.246C551.191 429.246 548.483 424.953 548.483 419.464C548.483 413.976 551.205 409.683 554.648 409.683C558.092 409.683 560.816 413.976 560.816 419.464C560.816 424.953 558.111 429.246 554.648 429.246ZM554.648 410.924C551.967 410.924 549.702 414.84 549.702 419.475C549.702 424.11 551.967 428.026 554.648 428.026C557.329 428.026 559.594 424.11 559.594 419.475C559.594 414.84 557.332 410.924 554.648 410.924Z" fill="black"/>
<path d="M465.909 321.052C465.909 321.052 490.759 277.816 494.18 275.74C497.602 273.664 494.18 295.547 494.18 295.547L475.624 326.47L465.909 321.052Z" fill="white"/>
<path d="M475.624 327.079C475.52 327.079 475.418 327.052 475.327 327L465.612 321.585C465.542 321.546 465.479 321.493 465.429 321.429C465.379 321.366 465.342 321.293 465.321 321.215C465.299 321.137 465.294 321.056 465.304 320.975C465.314 320.895 465.34 320.818 465.381 320.748C467.932 316.311 490.408 277.316 493.862 275.221C494.059 275.079 494.294 275 494.537 274.994C494.78 274.988 495.019 275.054 495.223 275.186C497.531 276.726 495.462 291.233 494.771 295.642C494.76 295.719 494.733 295.794 494.692 295.86L476.136 326.783C476.083 326.871 476.008 326.945 475.918 326.997C475.829 327.049 475.728 327.077 475.624 327.079ZM466.747 320.83L475.404 325.658L493.595 295.344C494.926 286.779 495.672 277.115 494.578 276.224L494.496 276.27C492.112 277.71 476.716 303.503 466.747 320.821V320.83Z" fill="black"/>
<path d="M530.866 274.865C530.866 274.865 513.82 266.521 494.18 275.74C494.18 275.74 486.471 293.3 487.647 308.752C489.629 334.86 486.733 348.15 486.063 351.473C484.876 357.366 527.675 350.288 537.186 348.704C545.973 347.242 534.919 329.16 534.039 322.166C533.16 315.173 530.866 274.865 530.866 274.865Z" fill="white"/>
<path d="M494.197 354.377C489.654 354.377 486.888 353.88 485.919 352.88C485.719 352.685 485.573 352.442 485.493 352.175C485.413 351.908 485.402 351.625 485.462 351.353L485.519 351.081C487.803 339.849 488.312 325.625 487.035 308.809C485.865 293.384 493.543 275.685 493.62 275.506C493.681 275.372 493.786 275.263 493.919 275.199C513.597 265.961 530.961 274.245 531.135 274.33C531.232 274.378 531.315 274.45 531.375 274.541C531.434 274.631 531.469 274.735 531.475 274.843C531.497 275.245 533.775 315.205 534.641 322.101C534.913 324.163 536.116 327.329 537.404 330.679C539.769 336.836 542.448 343.813 540.469 347.253C539.829 348.37 538.757 349.06 537.281 349.307C516.975 352.682 502.57 354.377 494.197 354.377ZM494.651 276.194C493.797 278.218 487.174 294.485 488.254 308.706C489.539 325.633 489.019 339.968 486.714 351.315L486.659 351.587C486.639 351.665 486.64 351.747 486.665 351.825C486.689 351.902 486.734 351.971 486.795 352.024C487.909 353.173 495.041 355.089 537.083 348.095C538.193 347.91 538.953 347.435 539.41 346.639C541.101 343.691 538.531 336.999 536.263 331.097C534.951 327.676 533.707 324.443 533.43 322.234C532.613 315.653 530.509 279.335 530.278 275.259C527.869 274.216 512.241 268.042 494.651 276.194Z" fill="black"/>
<path d="M529.455 320.349L505.12 305.867L491.902 310.295C492.297 310.677 492.791 310.941 493.329 311.057C493.866 311.172 494.425 311.136 494.943 310.95C496.823 310.333 499.472 310.502 501.353 312.037C503.234 313.572 505.79 312.037 505.79 312.037C505.79 312.037 521.257 334.909 534.894 335.382C545.978 335.765 539.919 296.9 537.265 282.348C536.964 280.703 536.242 279.164 535.171 277.879C534.099 276.594 532.714 275.606 531.149 275.012L527.066 273.458L529.455 320.349Z" fill="white"/>
<path d="M535.049 335.98H534.867C521.975 335.534 507.883 316.107 505.583 312.811C504.647 313.224 502.622 313.852 500.956 312.499C499.208 311.075 496.769 310.98 495.122 311.521C494.494 311.745 493.815 311.787 493.164 311.643C492.513 311.499 491.916 311.174 491.442 310.706C491.373 310.631 491.324 310.541 491.299 310.443C491.274 310.344 491.275 310.241 491.3 310.143C491.326 310.045 491.376 309.954 491.445 309.88C491.515 309.805 491.601 309.749 491.698 309.717L504.916 305.301C504.999 305.273 505.088 305.263 505.175 305.272C505.263 305.282 505.347 305.31 505.423 305.356L528.778 319.254L526.448 273.482C526.443 273.382 526.463 273.282 526.506 273.192C526.549 273.101 526.614 273.023 526.695 272.964C526.776 272.904 526.87 272.866 526.969 272.851C527.069 272.837 527.17 272.847 527.264 272.881L531.347 274.433C533.008 275.071 534.478 276.123 535.616 277.489C536.754 278.855 537.522 280.49 537.848 282.236C540.249 295.395 545.135 326.796 538.683 334.26C538.244 334.799 537.69 335.233 537.061 335.53C536.433 335.828 535.745 335.982 535.049 335.98ZM505.785 311.415C505.885 311.415 505.983 311.44 506.072 311.487C506.16 311.535 506.235 311.603 506.291 311.687C506.443 311.912 521.741 334.306 534.908 334.763C535.455 334.788 536 334.683 536.498 334.456C536.996 334.228 537.433 333.885 537.771 333.456C544.051 326.204 538.506 292.577 536.658 282.445C536.372 280.905 535.695 279.463 534.691 278.259C533.688 277.054 532.391 276.127 530.925 275.566L527.719 274.343L530.06 320.319C530.064 320.428 530.038 320.536 529.985 320.632C529.932 320.728 529.855 320.809 529.76 320.864C529.666 320.92 529.558 320.949 529.448 320.949C529.339 320.948 529.231 320.918 529.137 320.862L505.044 306.527L493.38 310.423C493.832 310.528 494.304 310.502 494.741 310.35C496.704 309.708 499.625 309.828 501.729 311.545C503.258 312.792 505.442 311.507 505.463 311.494C505.563 311.438 505.676 311.411 505.79 311.415H505.785Z" fill="black"/>
<path d="M466.726 325.671L506.179 327.261C506.483 327.261 506.781 327.18 507.042 327.026C507.304 326.873 507.52 326.653 507.668 326.389C507.816 326.124 507.891 325.825 507.885 325.523C507.878 325.22 507.792 324.924 507.633 324.666L487.732 292.333C487.492 291.942 487.156 291.619 486.755 291.394C486.354 291.17 485.902 291.053 485.443 291.053L445.562 291.963L466.726 325.671Z" fill="black"/>
<path d="M463.881 327.261H506.465L484.18 291.045H441.596L463.881 327.261Z" fill="white"/>
<path d="M506.468 327.872H463.881C463.777 327.872 463.674 327.845 463.583 327.794C463.492 327.743 463.416 327.67 463.361 327.581L441.076 291.366C441.018 291.273 440.987 291.167 440.984 291.059C440.982 290.95 441.009 290.843 441.062 290.748C441.115 290.653 441.192 290.575 441.286 290.52C441.38 290.465 441.487 290.436 441.596 290.436H484.18C484.283 290.439 484.384 290.468 484.473 290.519C484.563 290.571 484.638 290.644 484.691 290.733L506.974 326.948C507.031 327.041 507.063 327.146 507.065 327.255C507.068 327.364 507.041 327.471 506.988 327.566C506.935 327.66 506.858 327.739 506.764 327.794C506.67 327.849 506.563 327.878 506.454 327.877L506.468 327.872ZM464.224 326.652H505.379L483.845 291.656H442.687L464.224 326.652Z" fill="black"/>
<path d="M460.778 325.829C460.778 325.829 461.499 322.06 460.778 319.547C460.057 317.034 455.59 309.554 454.313 307.989C453.037 306.423 451.956 323.133 460.778 325.829Z" fill="white"/>
<path d="M460.778 326.437C460.717 326.437 460.657 326.429 460.598 326.413C455.154 324.747 453.031 317.99 452.86 312.23C452.811 310.556 452.876 307.698 453.88 307.339C454.04 307.28 454.216 307.275 454.379 307.324C454.543 307.373 454.686 307.474 454.787 307.611C456.148 309.274 460.636 316.849 461.366 319.384C462.117 322.009 461.41 325.788 461.366 325.948C461.352 326.031 461.32 326.111 461.273 326.181C461.226 326.251 461.165 326.311 461.094 326.356C460.998 326.411 460.889 326.439 460.778 326.437ZM454.264 308.937C453.929 310.537 453.878 314.822 455.217 318.745C455.982 320.99 457.473 323.813 460.291 324.995C460.451 323.815 460.683 321.416 460.193 319.702C459.572 317.555 455.892 311.254 454.264 308.937Z" fill="black"/>
<path d="M502.178 255.229C505.022 259.687 511.34 262.097 516.463 261.646C523.701 261.011 524.608 255.009 530.346 255.245C536.541 255.5 538.016 262.597 543.98 263.396C547.378 263.847 552.356 262.269 559.281 253.343C559.804 254.221 563.612 260.378 570.839 261.318C578.534 262.32 585.029 256.748 587.569 251.023C590.043 245.445 589.765 237.437 586.042 235.218C582.734 233.234 579 237.16 573.607 235.272C569.35 233.783 569.984 230.082 566.927 229.256C560.43 227.496 554.436 242.026 547.094 240.703C542.739 239.915 543.39 234.544 538.016 232.596C530.994 230.044 526.453 237.973 518.401 235.913C512.571 234.421 512.935 229.748 506.778 228.24C500.996 226.822 494.325 229.384 490.299 233.821C484.471 240.244 484.144 250.634 487.092 252.248C489.994 253.838 495.375 246.559 499.069 248.572C501.043 249.626 500.144 252.044 502.178 255.229Z" fill="black"/>
<path d="M502.178 231.142C499.706 229.139 501.269 223.241 502.85 220.056C503.444 218.863 506.095 213.535 509.585 213.731C513.167 213.946 516.597 219.948 515.317 224.702C513.719 230.647 505.071 233.487 502.178 231.142Z" fill="black"/>
<path d="M502.232 262.589C501.699 262.86 501.095 262.957 500.504 262.867C499.914 262.776 499.366 262.504 498.939 262.087C497.976 261.128 497.133 260.057 496.426 258.897L495.337 258.489L494.175 253.264C492.452 248.857 493.554 245.972 493.554 245.972C493.769 243.526 499.932 242.084 503.381 246.787C505.722 249.971 509.097 246.787 509.097 246.787C509.097 246.787 510.861 242.04 512.924 244.961C514.988 247.882 510.897 253.012 510.897 253.012L513.951 266.005C514.298 267.481 515.002 268.85 516.002 269.992C517.001 271.134 518.265 272.015 519.683 272.558L522.618 273.68C522.618 273.68 518.034 288.67 505.05 288.391C495.141 288.179 499.412 274.805 499.412 274.805L500.713 274.232C502.365 273.504 503.713 272.226 504.525 270.616C505.336 269.006 505.562 267.165 505.164 265.407L504.29 261.56L502.232 262.589Z" fill="white"/>
<path d="M505.401 288.996H505.033C502.483 288.939 500.577 288.054 499.366 286.364C496.434 282.266 498.729 274.933 498.821 274.623C498.848 274.54 498.892 274.464 498.95 274.4C499.008 274.335 499.079 274.283 499.159 274.248L500.46 273.678C501.981 273.005 503.22 271.827 503.968 270.344C504.716 268.861 504.925 267.165 504.56 265.545L503.86 262.456L502.499 263.135C501.852 263.466 501.117 263.584 500.399 263.474C499.681 263.363 499.015 263.03 498.498 262.521C497.552 261.577 496.718 260.529 496.01 259.397L495.12 259.063C495.024 259.027 494.94 258.968 494.873 258.891C494.807 258.814 494.76 258.722 494.738 258.622L493.584 253.46C491.951 249.265 492.768 246.377 492.953 245.852C493.097 244.735 494.137 243.779 495.691 243.344C498.141 242.665 501.609 243.344 503.857 246.434C504.383 247.151 504.979 247.52 505.678 247.591C506.952 247.703 508.207 246.73 508.558 246.434C508.831 245.795 509.8 243.619 511.28 243.423C512.043 243.32 512.753 243.725 513.385 244.616C515.437 247.523 512.334 252.061 511.517 253.161L514.511 265.872C514.835 267.251 515.492 268.531 516.425 269.599C517.358 270.666 518.54 271.489 519.866 271.996L522.8 273.118C522.945 273.173 523.063 273.28 523.131 273.419C523.199 273.558 523.211 273.718 523.165 273.865C523.151 274.001 518.415 288.996 505.401 288.996ZM499.916 275.248C499.548 276.55 498.065 282.448 500.359 285.652C501.337 287.01 502.915 287.728 505.06 287.774C516.052 288.045 520.881 276.656 521.845 274.031L519.463 273.118C517.951 272.541 516.603 271.602 515.538 270.385C514.473 269.168 513.724 267.709 513.355 266.135L510.3 253.142C510.279 253.053 510.279 252.959 510.298 252.87C510.318 252.78 510.358 252.696 510.415 252.623C511.474 251.294 513.894 247.387 512.421 245.303C512.181 244.964 511.819 244.564 511.474 244.616C510.809 244.703 510.004 246.083 509.666 246.991C509.633 247.078 509.581 247.157 509.514 247.222C509.44 247.292 507.63 248.974 505.589 248.789C504.538 248.694 503.629 248.14 502.894 247.14C500.988 244.529 498.065 243.934 496.029 244.502C494.94 244.803 494.224 245.401 494.167 246.026C494.163 246.082 494.152 246.137 494.131 246.189C494.131 246.214 493.143 248.939 494.749 253.044C494.749 253.074 494.768 253.104 494.777 253.134L495.865 258.025L496.641 258.315C496.77 258.362 496.878 258.451 496.949 258.568C497.63 259.686 498.442 260.719 499.369 261.644C499.705 261.972 500.135 262.186 500.6 262.255C501.065 262.325 501.54 262.247 501.957 262.032L504.015 261.003C504.098 260.962 504.189 260.94 504.281 260.939C504.374 260.938 504.465 260.958 504.549 260.998C504.632 261.037 504.706 261.095 504.764 261.167C504.822 261.239 504.863 261.323 504.884 261.413L505.757 265.263C506.183 267.157 505.937 269.141 505.062 270.875C504.187 272.609 502.737 273.986 500.958 274.773L499.916 275.248Z" fill="black"/>
<path d="M504.29 262.168C504.151 262.17 504.016 262.125 503.906 262.039C503.797 261.954 503.719 261.834 503.688 261.699C503.656 261.564 503.671 261.422 503.731 261.297C503.791 261.171 503.893 261.071 504.018 261.011C507.219 259.459 506.639 256.465 506.634 256.435C506.601 256.277 506.632 256.112 506.721 255.977C506.81 255.842 506.949 255.748 507.107 255.715C507.266 255.682 507.431 255.714 507.566 255.802C507.702 255.891 507.796 256.03 507.829 256.188C507.829 256.229 508.596 260.144 504.562 262.108C504.477 262.149 504.384 262.169 504.29 262.168Z" fill="black"/>
<path d="M486.738 401.149C486.577 401.149 486.421 401.084 486.307 400.97C486.193 400.856 486.129 400.701 486.129 400.54V355.111C486.131 352.504 487.17 350.006 489.016 348.163C490.863 346.32 493.366 345.283 495.977 345.28H552.906C553.061 345.291 553.206 345.359 553.313 345.473C553.419 345.586 553.478 345.735 553.478 345.89C553.478 346.045 553.419 346.195 553.313 346.308C553.206 346.421 553.061 346.49 552.906 346.5H495.977C493.69 346.503 491.497 347.41 489.88 349.025C488.262 350.639 487.353 352.828 487.351 355.111V400.54C487.351 400.62 487.335 400.699 487.304 400.774C487.273 400.848 487.228 400.915 487.171 400.971C487.114 401.028 487.047 401.073 486.972 401.103C486.898 401.133 486.819 401.149 486.738 401.149Z" fill="white"/>
<path d="M481.262 461.652H487.179L487.261 357.143C487.261 352.6 490.157 348.921 493.71 348.927L552.506 348.166L552.234 341.177L493.045 341.357C486.594 341.357 481.34 348.022 481.34 356.276L481.262 461.652Z" fill="white"/>
<path d="M487.179 462.271H481.262C481.1 462.271 480.945 462.207 480.83 462.093C480.716 461.979 480.652 461.824 480.652 461.663L480.733 356.298C480.75 347.728 486.267 340.767 493.037 340.767H493.056L552.239 340.591C552.397 340.591 552.549 340.652 552.663 340.761C552.777 340.871 552.843 341.02 552.849 341.178L553.121 348.166C553.124 348.247 553.111 348.328 553.083 348.404C553.054 348.48 553.011 348.55 552.955 348.609C552.899 348.668 552.831 348.715 552.756 348.747C552.682 348.78 552.601 348.797 552.52 348.799L493.723 349.56C490.506 349.56 487.892 352.97 487.884 357.167L487.805 461.676C487.805 461.757 487.789 461.836 487.759 461.91C487.728 461.984 487.683 462.051 487.626 462.108C487.569 462.164 487.501 462.209 487.427 462.24C487.353 462.27 487.273 462.285 487.193 462.285L487.179 462.271ZM481.871 461.043H486.57L486.651 357.146C486.651 352.277 489.82 348.321 493.699 348.321L551.861 347.568L551.654 341.813L493.056 341.99H493.04C486.94 341.99 481.969 348.405 481.953 356.301L481.871 461.043Z" fill="black"/>
<path d="M467.828 476.308C467.828 464.915 474.935 455.99 484.014 455.99C493.092 455.99 500.207 464.896 500.207 476.308C500.207 487.719 493.097 496.629 484.022 496.629C474.946 496.629 467.828 487.695 467.828 476.308ZM474.633 476.308C474.633 483.997 478.926 490.494 484.005 490.494C489.085 490.494 493.375 483.997 493.375 476.308C493.375 468.619 489.085 462.125 484.005 462.125C478.926 462.125 474.641 468.61 474.641 476.308H474.633Z" fill="white"/>
<path d="M484.014 497.229C474.595 497.229 467.216 488.037 467.216 476.308C467.216 464.578 474.595 455.386 484.014 455.386C493.432 455.386 500.809 464.578 500.809 476.308C500.809 488.037 493.432 497.229 484.014 497.229ZM484.014 456.59C475.278 456.59 468.438 465.249 468.438 476.3C468.438 487.35 475.278 496.009 484.014 496.009C492.749 496.009 499.586 487.353 499.586 476.3C499.586 465.247 492.746 456.59 484.014 456.59ZM484.014 491.097C478.602 491.097 474.032 484.323 474.032 476.302C474.032 468.282 478.602 461.508 484.014 461.508C489.425 461.508 493.995 468.284 493.995 476.302C493.995 484.32 489.425 491.094 484.014 491.094V491.097ZM484.014 462.728C479.264 462.728 475.254 468.945 475.254 476.313C475.254 483.682 479.264 489.899 484.014 489.899C488.764 489.899 492.773 483.682 492.773 476.313C492.773 468.945 488.774 462.723 484.014 462.723V462.728Z" fill="black"/>
<path d="M477.342 312.839H472.586L479.454 331.431C479.454 332.551 478.559 332.412 477.44 332.388L460.002 332.092C457.724 331.893 457.128 333.782 457.128 334.168L456.929 340.001H460.794L460.694 337.629C460.694 336.814 461.674 336.127 462.479 336.146L481.106 336.602C481.197 336.604 481.288 336.598 481.379 336.586C481.946 336.513 482.49 336.312 482.969 335.999C483.448 335.685 483.849 335.267 484.142 334.776C484.435 334.285 484.612 333.734 484.66 333.164C484.708 332.595 484.626 332.022 484.419 331.489L477.342 312.839Z" fill="white"/>
<path d="M460.797 340.612H456.926C456.845 340.612 456.764 340.595 456.688 340.563C456.613 340.531 456.545 340.484 456.488 340.426C456.431 340.367 456.387 340.297 456.357 340.221C456.328 340.145 456.314 340.064 456.317 339.982L456.515 334.146C456.595 333.422 456.94 332.753 457.484 332.268C457.831 331.962 458.239 331.733 458.682 331.597C459.125 331.462 459.592 331.423 460.051 331.483L477.745 331.787C478.115 331.787 478.678 331.817 478.787 331.711C478.82 331.656 478.836 331.593 478.833 331.529L472.007 313.053C471.973 312.961 471.962 312.862 471.975 312.764C471.988 312.667 472.024 312.574 472.08 312.494C472.135 312.411 472.209 312.343 472.297 312.295C472.384 312.248 472.482 312.223 472.581 312.222H477.342C477.465 312.222 477.586 312.26 477.688 312.33C477.789 312.401 477.867 312.5 477.911 312.616L484.988 331.255C485.231 331.886 485.326 332.565 485.264 333.239C485.202 333.913 484.986 334.563 484.631 335.14C484.293 335.702 483.829 336.179 483.276 336.533C482.724 336.887 482.097 337.11 481.444 337.183C481.326 337.198 481.206 337.204 481.087 337.202L462.46 336.746C462.121 336.762 461.799 336.903 461.557 337.14C461.413 337.262 461.323 337.434 461.303 337.621L461.401 339.968C461.405 340.051 461.392 340.133 461.363 340.21C461.334 340.287 461.29 340.357 461.233 340.416C461.176 340.476 461.107 340.523 461.031 340.555C460.956 340.588 460.874 340.604 460.792 340.604L460.797 340.612ZM457.563 339.392H460.16L460.087 337.653C460.092 337.394 460.149 337.138 460.256 336.901C460.363 336.665 460.516 336.452 460.707 336.276C460.941 336.04 461.22 335.853 461.527 335.727C461.834 335.6 462.163 335.535 462.496 335.537L481.123 335.993C481.186 335.997 481.25 335.997 481.313 335.993C481.78 335.941 482.229 335.781 482.624 335.527C483.019 335.273 483.35 334.931 483.592 334.529C483.851 334.112 484.01 333.64 484.057 333.152C484.105 332.663 484.038 332.17 483.864 331.711L476.933 313.464H473.474L480.042 331.233C480.066 331.301 480.078 331.373 480.077 331.445C480.09 331.656 480.059 331.868 479.987 332.066C479.914 332.265 479.801 332.446 479.656 332.6C479.176 333.064 478.471 333.043 477.726 333.018H477.437L460.016 332.722C459.729 332.677 459.436 332.692 459.155 332.765C458.874 332.839 458.611 332.969 458.383 333.149C458.065 333.42 457.846 333.789 457.762 334.197L457.563 339.392Z" fill="black"/>
<path d="M461.339 249.8H401.723C399.987 249.8 398.579 251.205 398.579 252.938V274.523C398.579 276.256 399.987 277.661 401.723 277.661H461.339C463.075 277.661 464.483 276.256 464.483 274.523V252.938C464.483 251.205 463.075 249.8 461.339 249.8Z" fill="white"/>
<path d="M461.339 278.269H401.726C400.731 278.269 399.777 277.874 399.074 277.172C398.371 276.47 397.975 275.518 397.975 274.525V252.938C397.975 251.945 398.371 250.993 399.074 250.291C399.777 249.588 400.731 249.193 401.726 249.191H413.488C413.649 249.191 413.805 249.256 413.919 249.37C414.033 249.484 414.098 249.639 414.098 249.8C414.098 249.961 414.033 250.116 413.919 250.23C413.805 250.345 413.649 250.409 413.488 250.409H401.726C401.054 250.41 400.411 250.677 399.936 251.151C399.462 251.625 399.195 252.268 399.194 252.938V274.525C399.195 275.195 399.462 275.838 399.936 276.311C400.411 276.785 401.055 277.051 401.726 277.052H461.339C462.01 277.051 462.654 276.785 463.129 276.311C463.604 275.838 463.872 275.195 463.873 274.525V252.938C463.872 252.268 463.604 251.625 463.129 251.151C462.654 250.677 462.01 250.41 461.339 250.409H421.409C421.247 250.409 421.092 250.345 420.978 250.23C420.863 250.116 420.799 249.961 420.799 249.8C420.799 249.639 420.863 249.484 420.978 249.37C421.092 249.256 421.247 249.191 421.409 249.191H461.339C462.334 249.192 463.288 249.587 463.992 250.29C464.696 250.992 465.092 251.945 465.093 252.938V274.525C465.091 275.518 464.695 276.47 463.991 277.172C463.288 277.874 462.334 278.269 461.339 278.269Z" fill="#3774EF"/>
<path d="M455.78 260.685H408.4C408.239 260.685 408.083 260.62 407.969 260.506C407.855 260.392 407.791 260.237 407.791 260.076C407.791 259.914 407.855 259.76 407.969 259.646C408.083 259.531 408.239 259.467 408.4 259.467H455.78C455.942 259.467 456.097 259.531 456.212 259.646C456.326 259.76 456.39 259.914 456.39 260.076C456.39 260.237 456.326 260.392 456.212 260.506C456.097 260.62 455.942 260.685 455.78 260.685Z" fill="#3774EF"/>
<path d="M455.78 267.004H445.875C445.713 267.004 445.558 266.94 445.444 266.826C445.329 266.712 445.265 266.557 445.265 266.396C445.265 266.234 445.329 266.08 445.444 265.965C445.558 265.851 445.713 265.787 445.875 265.787H455.78C455.942 265.787 456.097 265.851 456.211 265.965C456.326 266.08 456.39 266.234 456.39 266.396C456.39 266.557 456.326 266.712 456.211 266.826C456.097 266.94 455.942 267.004 455.78 267.004Z" fill="#3774EF"/>
<path d="M439.543 267.004H408.4C408.239 267.004 408.083 266.94 407.969 266.826C407.855 266.712 407.791 266.557 407.791 266.396C407.791 266.234 407.855 266.08 407.969 265.965C408.083 265.851 408.239 265.787 408.4 265.787H439.543C439.705 265.787 439.86 265.851 439.974 265.965C440.089 266.08 440.153 266.234 440.153 266.396C440.153 266.557 440.089 266.712 439.974 266.826C439.86 266.94 439.705 267.004 439.543 267.004Z" fill="#3774EF"/>
<path d="M489.877 148.57L489.605 143.291L483.709 142.316C483.425 141.115 483.037 139.942 482.549 138.808L486.741 134.684L483.774 130.247L478.158 132.246C477.285 131.35 476.34 130.527 475.333 129.785L476.833 124.188L471.96 121.786L468.122 126.22C466.901 125.866 465.653 125.611 464.39 125.459L462.79 119.9L457.316 120.172L456.284 125.861C455.043 126.139 453.827 126.517 452.647 126.992L448.382 122.965L443.776 125.842L445.828 131.26C444.9 132.099 444.043 133.013 443.267 133.993L437.469 132.564L434.962 137.273L439.546 140.96C439.175 142.136 438.907 143.343 438.746 144.565L432.972 146.131L433.244 151.41L439.14 152.385C439.424 153.585 439.812 154.758 440.3 155.89L436.108 160.017L439.075 164.454L444.699 162.455C445.571 163.351 446.516 164.175 447.524 164.916L446.024 170.513L450.897 172.915L454.735 168.481C455.956 168.835 457.204 169.089 458.467 169.242L460.068 174.801L465.539 174.529L466.573 168.84C467.815 168.562 469.031 168.183 470.21 167.707L474.473 171.725L479.078 168.848L477.026 163.43C477.954 162.592 478.811 161.677 479.587 160.697L485.385 162.126L487.892 157.414L483.308 153.727C483.678 152.552 483.946 151.346 484.109 150.125L489.877 148.57ZM462.112 160.941C454.327 161.332 447.712 155.564 447.336 148.057C446.961 140.55 452.96 134.148 460.743 133.76C468.525 133.371 475.142 139.137 475.518 146.644C475.894 154.151 469.894 160.553 462.112 160.941Z" fill="white"/>
<path d="M460.062 175.41C459.93 175.409 459.801 175.366 459.696 175.287C459.59 175.208 459.513 175.096 459.477 174.969L457.988 169.793C456.959 169.653 455.941 169.447 454.939 169.174L451.357 173.315C451.268 173.416 451.148 173.485 451.016 173.512C450.883 173.538 450.746 173.521 450.625 173.461L445.75 171.06C445.623 170.998 445.522 170.893 445.463 170.765C445.405 170.636 445.394 170.492 445.431 170.356L446.825 165.155C446.019 164.54 445.254 163.873 444.536 163.158L439.279 165.028C439.151 165.074 439.011 165.076 438.882 165.033C438.752 164.99 438.641 164.905 438.566 164.791L435.599 160.357C435.52 160.239 435.484 160.098 435.499 159.957C435.513 159.816 435.576 159.684 435.678 159.585L439.576 155.746C439.201 154.826 438.889 153.882 438.642 152.92L433.141 152.01C433.004 151.987 432.878 151.918 432.786 151.815C432.693 151.711 432.639 151.578 432.632 151.44L432.36 146.16C432.352 146.021 432.392 145.884 432.474 145.771C432.556 145.658 432.674 145.577 432.809 145.541L438.19 144.085C438.338 143.103 438.553 142.132 438.833 141.18L434.581 137.762C434.47 137.673 434.394 137.549 434.365 137.41C434.337 137.271 434.357 137.127 434.423 137.001L436.93 132.293C436.994 132.172 437.096 132.077 437.22 132.021C437.344 131.965 437.484 131.953 437.616 131.985L443.036 133.322C443.678 132.538 444.372 131.797 445.113 131.105L443.207 126.07C443.157 125.939 443.154 125.794 443.199 125.661C443.245 125.527 443.335 125.414 443.455 125.34L448.061 122.459C448.175 122.388 448.311 122.356 448.445 122.37C448.58 122.384 448.706 122.442 448.804 122.536L452.786 126.296C453.755 125.925 454.747 125.616 455.756 125.372L456.719 120.077C456.743 119.941 456.813 119.818 456.916 119.727C457.02 119.636 457.151 119.583 457.288 119.577L462.762 119.305C462.9 119.297 463.036 119.337 463.149 119.417C463.261 119.497 463.343 119.613 463.38 119.745L464.869 124.921C465.897 125.061 466.915 125.268 467.915 125.541L471.5 121.4C471.589 121.298 471.709 121.228 471.841 121.201C471.974 121.175 472.111 121.193 472.232 121.253L477.108 123.655C477.234 123.718 477.334 123.822 477.392 123.95C477.45 124.078 477.462 124.223 477.426 124.359L476.032 129.559C476.838 130.174 477.603 130.841 478.322 131.556L483.578 129.687C483.706 129.641 483.846 129.639 483.976 129.682C484.105 129.725 484.216 129.81 484.291 129.923L487.258 134.357C487.338 134.475 487.373 134.617 487.359 134.758C487.344 134.899 487.281 135.03 487.179 135.129L483.281 138.968C483.656 139.888 483.968 140.832 484.215 141.794L489.716 142.704C489.854 142.727 489.979 142.796 490.072 142.9C490.164 143.004 490.218 143.136 490.225 143.275L490.497 148.554C490.504 148.693 490.463 148.831 490.381 148.943C490.299 149.056 490.18 149.137 490.046 149.174L484.664 150.63C484.513 151.607 484.295 152.573 484.011 153.521L488.274 156.95C488.384 157.039 488.46 157.163 488.489 157.302C488.518 157.441 488.498 157.585 488.431 157.711L485.924 162.419C485.86 162.539 485.758 162.634 485.634 162.69C485.51 162.745 485.371 162.758 485.238 162.726L479.819 161.4C479.176 162.184 478.482 162.925 477.742 163.617L479.647 168.652C479.698 168.784 479.7 168.929 479.655 169.062C479.61 169.195 479.52 169.309 479.4 169.383L474.794 172.263C474.679 172.335 474.543 172.366 474.408 172.352C474.273 172.339 474.146 172.28 474.048 172.187L470.068 168.427C469.099 168.798 468.106 169.106 467.096 169.348L466.135 174.646C466.111 174.781 466.042 174.905 465.938 174.996C465.835 175.086 465.704 175.139 465.566 175.146L460.092 175.418L460.062 175.41ZM454.732 167.872C454.79 167.872 454.848 167.879 454.904 167.894C456.092 168.242 457.308 168.49 458.538 168.636C458.657 168.651 458.769 168.7 458.861 168.778C458.952 168.856 459.019 168.958 459.052 169.073L460.517 174.168L465.024 173.942L465.969 168.728C465.991 168.61 466.047 168.501 466.13 168.415C466.213 168.328 466.32 168.268 466.437 168.242C467.644 167.974 468.827 167.611 469.976 167.155C470.084 167.11 470.204 167.098 470.319 167.119C470.435 167.141 470.542 167.196 470.626 167.277L474.546 170.981L478.33 168.62L476.452 163.669C476.408 163.554 476.4 163.429 476.429 163.31C476.458 163.191 476.521 163.083 476.612 163.001C477.516 162.185 478.35 161.295 479.106 160.341C479.178 160.249 479.276 160.18 479.387 160.142C479.498 160.105 479.618 160.1 479.732 160.129L485.067 161.441L487.114 157.596L482.922 154.225C482.826 154.148 482.756 154.044 482.721 153.927C482.685 153.809 482.686 153.684 482.723 153.567C483.084 152.424 483.345 151.253 483.502 150.065C483.518 149.946 483.568 149.835 483.647 149.745C483.726 149.655 483.83 149.591 483.945 149.559L489.24 148.125L489.025 143.826L483.613 142.93C483.495 142.91 483.385 142.856 483.298 142.774C483.21 142.693 483.148 142.587 483.121 142.471C482.843 141.305 482.466 140.165 481.994 139.063C481.944 138.951 481.93 138.827 481.954 138.706C481.977 138.586 482.037 138.475 482.124 138.39L485.957 134.616L483.534 130.994L478.363 132.836C478.252 132.875 478.133 132.882 478.019 132.855C477.905 132.828 477.801 132.768 477.72 132.684C476.87 131.812 475.951 131.01 474.971 130.287C474.872 130.215 474.798 130.114 474.758 129.999C474.717 129.883 474.713 129.759 474.745 129.641L476.106 124.527L472.105 122.555L468.566 126.63C468.489 126.718 468.388 126.782 468.276 126.815C468.163 126.848 468.044 126.848 467.932 126.815C466.742 126.47 465.527 126.223 464.298 126.076C464.178 126.061 464.066 126.012 463.975 125.934C463.883 125.856 463.817 125.754 463.783 125.638L462.319 120.544L457.814 120.769L456.866 125.983C456.845 126.101 456.789 126.21 456.706 126.297C456.622 126.383 456.515 126.444 456.398 126.47C455.191 126.741 454.007 127.109 452.86 127.57C452.751 127.615 452.632 127.627 452.516 127.605C452.401 127.583 452.294 127.529 452.209 127.448L448.289 123.745L444.508 126.106L446.384 131.059C446.427 131.173 446.435 131.298 446.407 131.417C446.378 131.535 446.314 131.643 446.223 131.725C445.319 132.541 444.484 133.43 443.727 134.385C443.655 134.476 443.557 134.545 443.447 134.583C443.336 134.62 443.217 134.625 443.104 134.597L437.771 133.284L435.721 137.129L439.913 140.501C440.009 140.578 440.079 140.682 440.115 140.799C440.15 140.916 440.149 141.041 440.112 141.158C439.751 142.301 439.491 143.473 439.334 144.661C439.318 144.779 439.267 144.891 439.187 144.981C439.108 145.071 439.003 145.135 438.887 145.166L433.596 146.601L433.811 150.899L439.222 151.796C439.34 151.816 439.45 151.87 439.537 151.951C439.625 152.033 439.687 152.139 439.715 152.255C439.992 153.42 440.37 154.56 440.842 155.662C440.891 155.774 440.905 155.899 440.882 156.019C440.858 156.14 440.799 156.25 440.711 156.336L436.878 160.11L439.301 163.732L444.473 161.889C444.583 161.85 444.703 161.844 444.817 161.871C444.931 161.898 445.034 161.957 445.115 162.042C445.965 162.914 446.884 163.715 447.865 164.438C447.963 164.511 448.038 164.611 448.078 164.726C448.118 164.842 448.123 164.967 448.091 165.085L446.73 170.198L450.731 172.171L454.27 168.095C454.326 168.027 454.397 167.972 454.477 167.933C454.556 167.895 454.644 167.874 454.732 167.872ZM461.369 161.572C453.6 161.572 447.108 155.667 446.727 148.087C446.632 146.207 446.921 144.328 447.576 142.564C448.231 140.799 449.239 139.186 450.538 137.822C453.189 134.998 456.84 133.319 460.713 133.143C468.811 132.73 475.736 138.775 476.128 146.606C476.222 148.485 475.933 150.364 475.278 152.129C474.623 153.893 473.615 155.507 472.317 156.871C469.664 159.692 466.012 161.368 462.139 161.542C461.883 161.563 461.625 161.572 461.369 161.572ZM461.483 134.349C461.249 134.349 461.012 134.349 460.775 134.366C457.217 134.525 453.862 136.064 451.425 138.656C450.24 139.901 449.32 141.373 448.722 142.984C448.123 144.594 447.859 146.309 447.944 148.024C448.303 155.184 454.643 160.702 462.076 160.333C465.634 160.176 468.99 158.637 471.427 156.045C472.612 154.799 473.531 153.326 474.129 151.716C474.727 150.105 474.991 148.39 474.906 146.674C474.56 139.745 468.607 134.349 461.483 134.349Z" fill="#36CA8E"/>
<path d="M587.313 115.039L586.858 106.005L576.768 104.342C576.281 102.289 575.617 100.281 574.783 98.3428L581.956 91.2785L576.876 83.6924L567.254 87.1159C565.763 85.5798 564.147 84.1702 562.422 82.9018L564.992 73.3133L556.652 69.2024L550.086 76.7911C547.996 76.183 545.859 75.7477 543.697 75.4896L540.975 65.9799L531.609 66.45L529.842 76.1879C527.718 76.6632 525.636 77.3102 523.617 78.1225L516.322 71.2293L508.428 76.1526L511.942 85.4259C510.353 86.8592 508.887 88.4214 507.557 90.0966L497.64 87.6512L493.347 95.7127L501.192 102.022C500.561 104.034 500.106 106.096 499.831 108.187L489.942 110.863L490.397 119.897L500.485 121.568C500.971 123.622 501.635 125.629 502.469 127.568L495.296 134.632L500.373 142.221L510.006 138.794C511.498 140.329 513.114 141.739 514.838 143.009L512.271 152.584L520.612 156.697L527.177 149.106C529.268 149.713 531.404 150.15 533.566 150.41L536.288 159.92L545.654 159.452L547.421 149.712C549.546 149.238 551.628 148.591 553.646 147.777L560.942 154.673L568.836 149.747L565.319 140.479C566.907 139.043 568.373 137.479 569.704 135.803L579.62 138.248L583.91 130.19L576.068 123.88C576.699 121.868 577.155 119.804 577.429 117.713L587.313 115.039ZM539.799 136.208C526.48 136.876 515.162 127.002 514.514 114.156C513.866 101.31 524.142 90.3574 537.458 89.7026C550.775 89.0478 562.096 98.908 562.744 111.752C563.391 124.595 553.113 135.539 539.797 136.208H539.799Z" fill="white"/>
<path d="M536.293 160.534C536.16 160.534 536.031 160.49 535.925 160.41C535.819 160.33 535.742 160.218 535.705 160.091L533.081 150.964C531.15 150.713 529.24 150.325 527.365 149.801L521.053 157.094C520.964 157.196 520.845 157.267 520.712 157.294C520.579 157.321 520.442 157.303 520.32 157.243L511.983 153.132C511.856 153.07 511.756 152.965 511.697 152.837C511.639 152.709 511.626 152.565 511.661 152.429L514.111 143.25C512.59 142.105 511.153 140.851 509.813 139.498L500.558 142.791C500.43 142.837 500.29 142.838 500.161 142.795C500.032 142.752 499.921 142.668 499.845 142.555L494.79 134.963C494.711 134.846 494.675 134.704 494.69 134.563C494.704 134.422 494.768 134.291 494.869 134.192L501.745 127.421C501.026 125.694 500.438 123.916 499.987 122.101L490.296 120.495C490.159 120.472 490.033 120.403 489.941 120.299C489.848 120.196 489.794 120.063 489.787 119.925L489.332 110.89C489.325 110.751 489.366 110.614 489.447 110.501C489.529 110.389 489.647 110.307 489.782 110.271L499.262 107.706C499.53 105.855 499.937 104.027 500.479 102.236L492.958 96.191C492.848 96.1021 492.771 95.9776 492.743 95.8388C492.714 95.7001 492.734 95.5556 492.8 95.4302L497.093 87.3714C497.156 87.2511 497.257 87.1556 497.381 87.1003C497.506 87.0451 497.645 87.0334 497.776 87.0671L507.303 89.4174C508.501 87.937 509.804 86.5458 511.204 85.2548L507.848 76.3564C507.798 76.2244 507.796 76.0793 507.841 75.9458C507.886 75.8122 507.976 75.6981 508.096 75.6228L515.99 70.6995C516.104 70.6282 516.239 70.5968 516.374 70.6101C516.508 70.6233 516.634 70.6806 516.733 70.7729L523.745 77.3998C525.554 76.6924 527.411 76.1149 529.303 75.6717L530.999 66.3278C531.024 66.1924 531.094 66.0693 531.198 65.9786C531.301 65.8879 531.433 65.8347 531.571 65.8278L540.937 65.3578C541.075 65.3511 541.211 65.3909 541.323 65.4708C541.435 65.5506 541.517 65.6659 541.555 65.7979L544.179 74.9273C546.11 75.1786 548.02 75.5672 549.895 76.0902L556.208 68.7948C556.297 68.6932 556.417 68.6237 556.549 68.5972C556.681 68.5707 556.819 68.5886 556.94 68.6481L565.264 72.7672C565.391 72.8296 565.492 72.9337 565.55 73.0619C565.609 73.1902 565.621 73.3346 565.585 73.4709L563.136 82.6491C564.656 83.7947 566.093 85.0478 567.434 86.3987L576.689 83.1083C576.817 83.0621 576.957 83.0602 577.086 83.1031C577.216 83.146 577.327 83.2311 577.402 83.3447L582.478 90.9335C582.558 91.051 582.593 91.1926 582.579 91.3336C582.564 91.4745 582.501 91.606 582.4 91.7051L575.524 98.476C576.241 100.203 576.829 101.982 577.282 103.796L586.973 105.402C587.11 105.425 587.235 105.494 587.327 105.598C587.42 105.702 587.474 105.834 587.482 105.972L587.936 115.009C587.944 115.148 587.903 115.285 587.822 115.398C587.74 115.51 587.622 115.591 587.487 115.626L577.99 118.199C577.722 120.05 577.315 121.878 576.773 123.669L584.294 129.717C584.405 129.806 584.481 129.93 584.509 130.069C584.537 130.208 584.516 130.353 584.449 130.478L580.159 138.536C580.096 138.656 579.995 138.752 579.871 138.808C579.747 138.863 579.608 138.876 579.476 138.843L569.935 136.493C568.737 137.973 567.434 139.364 566.035 140.656L569.404 149.54C569.453 149.673 569.455 149.817 569.41 149.951C569.365 150.084 569.276 150.198 569.157 150.274L561.263 155.197C561.148 155.269 561.013 155.301 560.878 155.287C560.743 155.273 560.617 155.215 560.52 155.121L553.508 148.497C551.697 149.204 549.839 149.782 547.946 150.225L546.253 159.569C546.228 159.704 546.157 159.827 546.054 159.917C545.95 160.008 545.819 160.061 545.682 160.069L536.315 160.536L536.293 160.534ZM527.169 148.497C527.227 148.497 527.285 148.505 527.341 148.522C529.399 149.12 531.503 149.549 533.631 149.804C533.75 149.818 533.862 149.868 533.953 149.945C534.045 150.023 534.11 150.126 534.143 150.241L536.745 159.289L545.145 158.868L546.825 149.606C546.847 149.488 546.903 149.379 546.987 149.293C547.07 149.207 547.176 149.146 547.293 149.119C549.385 148.653 551.435 148.017 553.423 147.217C553.532 147.174 553.65 147.162 553.765 147.184C553.88 147.206 553.986 147.26 554.071 147.34L561.023 153.91L568.084 149.502L564.747 140.696C564.703 140.582 564.695 140.458 564.724 140.339C564.753 140.22 564.817 140.113 564.908 140.031C566.471 138.618 567.915 137.078 569.225 135.428C569.297 135.336 569.394 135.266 569.505 135.228C569.615 135.19 569.735 135.185 569.848 135.213L579.305 137.542L583.134 130.347L575.684 124.356C575.588 124.279 575.518 124.174 575.483 124.057C575.447 123.939 575.448 123.813 575.486 123.696C576.113 121.717 576.568 119.688 576.847 117.631C576.862 117.513 576.913 117.402 576.992 117.312C577.071 117.222 577.175 117.157 577.29 117.126L586.687 114.583L586.27 106.516L576.667 104.926C576.548 104.907 576.438 104.852 576.35 104.77C576.262 104.688 576.201 104.582 576.174 104.464C575.694 102.446 575.041 100.472 574.222 98.5657C574.174 98.4533 574.16 98.3289 574.184 98.2086C574.207 98.0884 574.266 97.978 574.353 97.8919L581.158 91.1834L576.626 84.4071L567.45 87.6676C567.34 87.7071 567.221 87.7141 567.107 87.6875C566.993 87.661 566.889 87.6022 566.808 87.5181C565.339 86.0073 563.749 84.6196 562.052 83.3692C561.953 83.2973 561.878 83.1969 561.837 83.0814C561.796 82.9659 561.791 82.8407 561.824 82.7225L564.273 73.6285L556.807 69.9469L550.546 77.1797C550.469 77.2675 550.368 77.3316 550.256 77.3643C550.144 77.397 550.024 77.3971 549.912 77.3645C547.853 76.7695 545.749 76.3406 543.621 76.082C543.502 76.0677 543.39 76.0189 543.299 75.9416C543.207 75.8644 543.14 75.762 543.107 75.6473L540.507 66.5968L532.107 67.0179L530.422 76.2912C530.4 76.4091 530.344 76.5179 530.261 76.6043C530.177 76.6907 530.071 76.751 529.954 76.7776C527.862 77.245 525.812 77.881 523.824 78.6795C523.715 78.7236 523.597 78.7355 523.482 78.7138C523.367 78.6921 523.26 78.6378 523.176 78.5572L516.224 71.9874L509.163 76.3972L512.5 85.2005C512.543 85.3151 512.551 85.4401 512.523 85.5593C512.494 85.6785 512.43 85.7864 512.339 85.8689C510.777 87.2866 509.335 88.8306 508.027 90.4852C507.955 90.5771 507.858 90.6462 507.748 90.6843C507.637 90.7224 507.518 90.7278 507.404 90.6998L497.948 88.3686L494.115 95.5633L501.568 101.546C501.664 101.623 501.734 101.727 501.769 101.844C501.805 101.962 501.804 102.087 501.767 102.204C501.14 104.183 500.685 106.212 500.406 108.268C500.39 108.387 500.34 108.499 500.261 108.589C500.182 108.68 500.078 108.745 499.962 108.776L490.565 111.32L490.968 119.373L500.575 120.965C500.693 120.984 500.803 121.038 500.891 121.12C500.979 121.202 501.04 121.308 501.067 121.424C501.547 123.443 502.2 125.417 503.019 127.323C503.068 127.436 503.082 127.561 503.059 127.682C503.035 127.802 502.976 127.913 502.888 128L496.083 134.705L500.615 141.482L509.791 138.221C509.902 138.183 510.021 138.177 510.135 138.203C510.249 138.23 510.352 138.289 510.434 138.373C511.902 139.883 513.493 141.27 515.189 142.52C515.289 142.592 515.364 142.693 515.404 142.809C515.445 142.925 515.45 143.05 515.418 143.169L512.968 152.263L520.435 155.945L526.695 148.712C526.754 148.644 526.827 148.589 526.908 148.552C526.99 148.515 527.079 148.496 527.169 148.497ZM538.528 136.849C525.462 136.849 514.544 126.929 513.902 114.189C513.24 101.027 523.794 89.7651 537.426 89.0832C543.939 88.7199 550.336 90.9118 555.252 95.1911C557.652 97.2547 559.606 99.7828 560.998 102.622C562.39 105.462 563.19 108.554 563.351 111.711C564.012 124.872 553.459 136.135 539.827 136.816C539.391 136.838 538.958 136.849 538.528 136.849ZM538.738 90.2678C538.322 90.2678 537.906 90.2787 537.488 90.3004C524.529 90.9498 514.495 101.639 515.121 114.126C515.731 126.217 526.11 135.629 538.531 135.629C538.942 135.629 539.347 135.629 539.767 135.599C552.726 134.95 562.76 124.261 562.134 111.771C561.982 108.776 561.223 105.844 559.902 103.152C558.581 100.459 556.726 98.0625 554.449 96.1068C550.097 92.3195 544.512 90.2439 538.738 90.2678Z" fill="#36CA8E"/>
</svg>
