<svg width="1061" height="937" viewBox="0 0 1061 937" fill="none" xmlns="http://www.w3.org/2000/svg">
<g style="mix-blend-mode:lighten">
<path d="M333.189 307.018C348.786 291.605 350.524 268.312 337.591 250.419C314.041 217.785 296.194 182.369 284.535 143.825C280.455 130.382 285.808 118.492 298.579 112.953C310.77 107.669 324.051 112.467 330.564 124.867C347.739 157.525 366.189 189.417 387.768 219.433C423.324 268.94 466.319 310.777 516.174 345.799C545.193 366.196 575.834 383.811 606.707 401.103C616.001 406.318 620.173 414.801 619.107 425.231C618.064 435.359 612.062 442.196 602.582 445.835C598.248 447.527 593.891 447.434 589.371 446.112C550.109 434.754 513.882 417.115 480.691 393.288C458.07 377.017 434.197 381.559 417.279 403.994C382.584 450 348.63 496.516 316.392 544.283C299.288 569.639 283.042 595.574 266.447 621.253C260.051 631.173 251.985 638.172 239.261 637.129C219.097 635.506 208.272 614.159 218.887 596.221C235.852 567.62 253.234 539.252 270.477 510.791C283.826 488.726 297.292 466.731 310.641 444.667C317.038 434.052 317.061 426.38 310.895 419.937C304.498 413.262 296.548 413.192 285.516 419.82C235.709 449.88 185.972 479.962 136.211 510.068C121.586 518.898 105.038 516.255 97.3193 503.716C88.7896 489.902 92.428 474.675 107.678 465.034C156.836 433.862 204.627 400.673 252.139 367.068C278.816 348.179 304.774 328.201 331.033 308.71C331.983 307.991 332.91 307.25 333.258 306.995L333.189 307.018Z" fill="#7FB6F6" fill-opacity="0.5"/>
<path d="M569.294 253.509C543.8 279.003 502.382 279.164 476.863 253.83C451.344 228.497 451.18 187.079 476.512 161.376C502.099 135.465 544.05 135.28 569.639 161.008C594.926 186.434 594.765 227.991 569.294 253.509Z" fill="#7FB6F6" fill-opacity="0.5"/>
</g>
<g style="mix-blend-mode:lighten">
<path d="M728.191 629.097C712.593 644.509 710.855 667.802 723.789 685.696C747.338 718.33 765.185 753.745 776.845 792.289C780.924 805.732 775.571 817.622 762.8 823.161C750.609 828.445 737.328 823.647 730.815 811.247C713.64 778.59 695.19 746.697 673.611 716.682C638.055 667.174 595.06 625.338 545.205 590.316C516.186 569.919 485.545 552.303 454.673 535.012C445.379 529.797 441.206 521.314 442.272 510.884C443.315 500.756 449.318 493.918 458.797 490.28C463.131 488.588 467.488 488.681 472.008 490.002C511.271 501.36 547.497 518.999 580.688 542.826C603.309 559.098 627.182 554.556 644.101 532.12C678.796 486.115 712.749 439.599 744.987 391.831C762.091 366.476 778.338 340.541 794.932 314.861C801.328 304.941 809.394 297.942 822.118 298.985C842.283 300.608 853.107 321.955 842.492 339.894C825.527 368.494 808.145 396.863 790.902 425.324C777.553 447.388 764.088 469.383 750.738 491.447C744.341 502.063 744.319 509.734 750.484 516.178C756.881 522.853 764.831 522.923 775.863 516.294C825.67 486.235 875.408 456.152 925.168 426.046C939.793 417.216 956.342 419.859 964.06 432.398C972.59 446.212 968.951 461.439 953.701 471.081C904.543 502.253 856.752 535.441 809.24 569.047C782.563 587.935 756.605 607.914 730.346 627.405C729.396 628.123 728.469 628.865 728.121 629.12L728.191 629.097Z" fill="#7FB6F6" fill-opacity="0.5"/>
<path d="M492.085 682.606C517.58 657.112 558.997 656.951 584.516 682.284C610.035 707.618 610.199 749.036 584.867 774.738C559.28 800.65 517.329 800.834 491.741 775.107C466.453 749.68 466.614 708.123 492.085 682.606Z" fill="#7FB6F6" fill-opacity="0.5"/>
</g>
</svg>
